<?xml version="1.0" encoding="UTF-8" standalone="no"?>
<svg
   width="492.69403"
   zoomAndPan="magnify"
   viewBox="0 0 369.52053 90.14599"
   height="120.19466"
   preserveAspectRatio="xMidYMid"
   version="1.0"
   id="svg310"
   xmlns="http://www.w3.org/2000/svg"
   xmlns:svg="http://www.w3.org/2000/svg">
  <defs
     id="defs8">
    <clipPath
       id="14e2e18106">
      <path
         d="m 22,168 h 44 v 26 H 22 Z m 0,0"
         clip-rule="nonzero"
         id="path1" />
    </clipPath>
    <clipPath
       id="f869b3acc1">
      <path
         d="M 71.089844,184.44922 28.015625,203.03516 19.886719,184.1875 62.960938,165.60547 Z m 0,0"
         clip-rule="nonzero"
         id="path2" />
    </clipPath>
    <clipPath
       id="3fb0f7688f">
      <path
         d="M 71.089844,184.44922 28.015625,203.03516 19.886719,184.1875 62.960938,165.60547 Z m 0,0"
         clip-rule="nonzero"
         id="path3" />
    </clipPath>
    <clipPath
       id="a6349f0271">
      <path
         d="M 71.089844,184.44922 28.015625,203.03516 19.886719,184.1875 62.960938,165.60547 Z m 0,0"
         clip-rule="nonzero"
         id="path4" />
    </clipPath>
    <clipPath
       id="0cbb63048c">
      <path
         d="m 22,173 h 46 v 24 H 22 Z m 0,0"
         clip-rule="nonzero"
         id="path5" />
    </clipPath>
    <clipPath
       id="443955cc31">
      <path
         d="m 70.921875,191.34766 -44.871094,13.70312 -5.992187,-19.63281 44.867187,-13.69922 z m 0,0"
         clip-rule="nonzero"
         id="path6" />
    </clipPath>
    <clipPath
       id="82e34e778d">
      <path
         d="m 70.921875,191.34766 -44.871094,13.70312 -5.992187,-19.63281 44.867187,-13.69922 z m 0,0"
         clip-rule="nonzero"
         id="path7" />
    </clipPath>
    <clipPath
       id="8ac7d8e05e">
      <path
         d="m 70.921875,191.34766 -44.871094,13.70312 -5.992187,-19.63281 44.867187,-13.69922 z m 0,0"
         clip-rule="nonzero"
         id="path8" />
    </clipPath>
  </defs>
  <g
     fill="#000000"
     fill-opacity="1"
     id="g11"
     transform="translate(-1.7500046,-130.9456)">
    <g
       transform="translate(151.27507,173.62499)"
       id="g10">
      <g
         id="g9">
        <path
           d="m 6.15625,-2.09375 c 0.351562,0 0.695312,-0.050781 1.03125,-0.15625 0.332031,-0.113281 0.578125,-0.21875 0.734375,-0.3125 L 8.15625,-2.71875 9.140625,-0.75 c -0.042969,0.023438 -0.09375,0.054688 -0.15625,0.09375 -0.054687,0.042969 -0.183594,0.121094 -0.390625,0.234375 -0.210938,0.105469 -0.433594,0.199219 -0.671875,0.28125 -0.242187,0.0859375 -0.554687,0.15625 -0.9375,0.21875 C 6.597656,0.148438 6.203125,0.1875 5.796875,0.1875 4.847656,0.1875 3.953125,-0.0390625 3.109375,-0.5 2.265625,-0.96875 1.582031,-1.609375 1.0625,-2.421875 0.539062,-3.242188 0.28125,-4.125 0.28125,-5.0625 c 0,-0.71875 0.148438,-1.40625 0.453125,-2.0625 0.3125,-0.65625 0.71875,-1.21875 1.21875,-1.6875 0.507813,-0.46875 1.097656,-0.84375 1.765625,-1.125 0.675781,-0.28125 1.367188,-0.421875 2.078125,-0.421875 0.65625,0 1.257813,0.07813 1.8125,0.234375 0.550781,0.15625 0.945313,0.3125 1.1875,0.46875 l 0.34375,0.234375 -0.984375,1.96875 C 8.09375,-7.492188 8.003906,-7.550781 7.890625,-7.625 7.773438,-7.695312 7.546875,-7.789062 7.203125,-7.90625 6.859375,-8.019531 6.507812,-8.078125 6.15625,-8.078125 c -0.5625,0 -1.070312,0.09375 -1.515625,0.28125 -0.4375,0.179687 -0.789063,0.417969 -1.046875,0.71875 C 3.332031,-6.785156 3.132812,-6.46875 3,-6.125 c -0.136719,0.335938 -0.203125,0.679688 -0.203125,1.03125 0,0.773438 0.285156,1.464844 0.859375,2.078125 0.582031,0.617187 1.414062,0.921875 2.5,0.921875 z m 0,0"
           id="path9" />
      </g>
    </g>
  </g>
  <g
     fill="#000000"
     fill-opacity="1"
     id="g14"
     transform="translate(-1.7500046,-130.9456)">
    <g
       transform="translate(160.55816,173.62499)"
       id="g13">
      <g
         id="g12">
        <path
           d="M 1.328125,-0.75 C 0.628906,-1.375 0.28125,-2.175781 0.28125,-3.15625 c 0,-0.976562 0.363281,-1.78125 1.09375,-2.40625 0.738281,-0.632812 1.644531,-0.953125 2.71875,-0.953125 1.0625,0 1.953125,0.320313 2.671875,0.953125 0.726563,0.636719 1.09375,1.4375 1.09375,2.40625 0,0.96875 -0.355469,1.773438 -1.0625,2.40625 C 6.085938,-0.125 5.1875,0.1875 4.09375,0.1875 2.957031,0.1875 2.035156,-0.125 1.328125,-0.75 Z m 1.6875,-3.46875 c -0.28125,0.273438 -0.421875,0.625 -0.421875,1.0625 0,0.4375 0.132812,0.796875 0.40625,1.078125 0.28125,0.273437 0.640625,0.40625 1.078125,0.40625 0.425781,0 0.773437,-0.140625 1.046875,-0.421875 0.28125,-0.28125 0.421875,-0.632812 0.421875,-1.0625 0,-0.4375 -0.140625,-0.789062 -0.421875,-1.0625 C 4.84375,-4.5 4.492188,-4.640625 4.078125,-4.640625 c -0.417969,0 -0.773437,0.140625 -1.0625,0.421875 z m 0,0"
           id="path11" />
      </g>
    </g>
  </g>
  <g
     fill="#000000"
     fill-opacity="1"
     id="g17"
     transform="translate(-1.7500046,-130.9456)">
    <g
       transform="translate(168.70706,173.62499)"
       id="g16">
      <g
         id="g15">
        <path
           d="M 1.328125,-0.75 C 0.628906,-1.375 0.28125,-2.175781 0.28125,-3.15625 c 0,-0.976562 0.363281,-1.78125 1.09375,-2.40625 0.738281,-0.632812 1.644531,-0.953125 2.71875,-0.953125 1.0625,0 1.953125,0.320313 2.671875,0.953125 0.726563,0.636719 1.09375,1.4375 1.09375,2.40625 0,0.96875 -0.355469,1.773438 -1.0625,2.40625 C 6.085938,-0.125 5.1875,0.1875 4.09375,0.1875 2.957031,0.1875 2.035156,-0.125 1.328125,-0.75 Z m 1.6875,-3.46875 c -0.28125,0.273438 -0.421875,0.625 -0.421875,1.0625 0,0.4375 0.132812,0.796875 0.40625,1.078125 0.28125,0.273437 0.640625,0.40625 1.078125,0.40625 0.425781,0 0.773437,-0.140625 1.046875,-0.421875 0.28125,-0.28125 0.421875,-0.632812 0.421875,-1.0625 0,-0.4375 -0.140625,-0.789062 -0.421875,-1.0625 C 4.84375,-4.5 4.492188,-4.640625 4.078125,-4.640625 c -0.417969,0 -0.773437,0.140625 -1.0625,0.421875 z m 0,0"
           id="path14" />
      </g>
    </g>
  </g>
  <g
     fill="#000000"
     fill-opacity="1"
     id="g20"
     transform="translate(-1.7500046,-130.9456)">
    <g
       transform="translate(176.85597,173.62499)"
       id="g19">
      <g
         id="g18">
        <path
           d="m 7.25,-5.546875 c 0.59375,0.648437 0.890625,1.4375 0.890625,2.375 0,0.9375 -0.296875,1.734375 -0.890625,2.390625 C 6.65625,-0.132812 5.90625,0.1875 5,0.1875 c -0.84375,0 -1.539062,-0.265625 -2.078125,-0.796875 v 3.8125 h -2.1875 v -9.53125 h 2.15625 v 0.71875 h 0.03125 C 3.460938,-6.210938 4.15625,-6.515625 5,-6.515625 c 0.90625,0 1.65625,0.324219 2.25,0.96875 z M 5.390625,-2.09375 C 5.671875,-2.375 5.8125,-2.734375 5.8125,-3.171875 c 0,-0.4375 -0.136719,-0.789063 -0.40625,-1.0625 -0.273438,-0.269531 -0.625,-0.40625 -1.0625,-0.40625 -0.429688,0 -0.78125,0.140625 -1.0625,0.421875 -0.273438,0.273438 -0.40625,0.621094 -0.40625,1.046875 0,0.4375 0.140625,0.796875 0.421875,1.078125 0.28125,0.28125 0.628906,0.421875 1.046875,0.421875 0.414062,0 0.765625,-0.140625 1.046875,-0.421875 z m 0,0"
           id="path17" />
      </g>
    </g>
  </g>
  <g
     fill="#000000"
     fill-opacity="1"
     id="g23"
     transform="translate(-1.7500046,-130.9456)">
    <g
       transform="translate(185.27609,173.62499)"
       id="g22">
      <g
         id="g21">
        <path
           d="m 7.140625,-2.859375 h -4.59375 c 0,0.449219 0.144531,0.78125 0.4375,1 0.289063,0.210937 0.601563,0.3125 0.9375,0.3125 0.351563,0 0.628906,-0.046875 0.828125,-0.140625 0.207031,-0.101562 0.445312,-0.289062 0.71875,-0.5625 l 1.578125,0.78125 C 6.378906,-0.363281 5.285156,0.1875 3.765625,0.1875 2.804688,0.1875 1.984375,-0.140625 1.296875,-0.796875 0.617188,-1.453125 0.28125,-2.238281 0.28125,-3.15625 c 0,-0.914062 0.335938,-1.703125 1.015625,-2.359375 0.6875,-0.664063 1.507813,-1 2.46875,-1 1,0 1.8125,0.292969 2.4375,0.875 0.632813,0.585937 0.953125,1.414063 0.953125,2.484375 0,0.148438 -0.00781,0.246094 -0.015625,0.296875 z M 2.609375,-4.0625 h 2.40625 C 4.960938,-4.394531 4.832031,-4.648438 4.625,-4.828125 4.414062,-5.003906 4.148438,-5.09375 3.828125,-5.09375 c -0.367187,0 -0.65625,0.09375 -0.875,0.28125 -0.210937,0.1875 -0.324219,0.4375 -0.34375,0.75 z m 0,0"
           id="path20" />
      </g>
    </g>
  </g>
  <g
     fill="#000000"
     fill-opacity="1"
     id="g26"
     transform="translate(-1.7500046,-130.9456)">
    <g
       transform="translate(192.70997,173.62499)"
       id="g25">
      <g
         id="g24">
        <path
           d="m 0.734375,0 v -6.328125 h 2.1875 v 0.921875 h 0.03125 c 0.00781,-0.039062 0.03125,-0.082031 0.0625,-0.125 0.039063,-0.050781 0.125,-0.140625 0.25,-0.265625 0.125,-0.125 0.253906,-0.234375 0.390625,-0.328125 0.144531,-0.101562 0.328125,-0.191406 0.546875,-0.265625 0.21875,-0.082031 0.441406,-0.125 0.671875,-0.125 0.238281,0 0.472656,0.039063 0.703125,0.109375 0.238281,0.0625 0.410156,0.125 0.515625,0.1875 l 0.171875,0.109375 -0.921875,1.84375 c -0.273438,-0.226563 -0.648438,-0.34375 -1.125,-0.34375 -0.261719,0 -0.492188,0.058594 -0.6875,0.171875 C 3.34375,-4.320312 3.207031,-4.179688 3.125,-4.015625 3.050781,-3.847656 3,-3.707031 2.96875,-3.59375 2.9375,-3.476562 2.921875,-3.390625 2.921875,-3.328125 V 0 Z m 0,0"
           id="path23" />
      </g>
    </g>
  </g>
  <g
     fill="#000000"
     fill-opacity="1"
     id="g29"
     transform="translate(-1.7500046,-130.9456)">
    <g
       transform="translate(198.84939,173.62499)"
       id="g28">
      <g
         id="g27">
        <path
           d="m 1.171875,-0.78125 c -0.59375,-0.644531 -0.890625,-1.4375 -0.890625,-2.375 0,-0.9375 0.296875,-1.726562 0.890625,-2.375 0.59375,-0.65625 1.34375,-0.984375 2.25,-0.984375 0.84375,0 1.535156,0.265625 2.078125,0.796875 V -6.328125 H 7.6875 V 0 H 5.515625 V -0.71875 H 5.5 C 4.957031,-0.113281 4.265625,0.1875 3.421875,0.1875 c -0.90625,0 -1.65625,-0.320312 -2.25,-0.96875 z m 1.84375,-3.4375 c -0.28125,0.273438 -0.421875,0.625 -0.421875,1.0625 0,0.4375 0.132812,0.796875 0.40625,1.078125 0.28125,0.273437 0.640625,0.40625 1.078125,0.40625 0.425781,0 0.773437,-0.140625 1.046875,-0.421875 0.28125,-0.28125 0.421875,-0.632812 0.421875,-1.0625 0,-0.4375 -0.140625,-0.789062 -0.421875,-1.0625 C 4.84375,-4.5 4.492188,-4.640625 4.078125,-4.640625 c -0.417969,0 -0.773437,0.140625 -1.0625,0.421875 z m 0,0"
           id="path26" />
      </g>
    </g>
  </g>
  <g
     fill="#000000"
     fill-opacity="1"
     id="g32"
     transform="translate(-1.7500046,-130.9456)">
    <g
       transform="translate(207.26952,173.62499)"
       id="g31">
      <g
         id="g30">
        <path
           d="m 1.109375,-6.328125 v -2.34375 h 2.1875 v 2.34375 H 4.625 V -4.65625 H 3.296875 v 2 c 0,0.585938 0.160156,0.875 0.484375,0.875 0.082031,0 0.164062,-0.015625 0.25,-0.046875 0.09375,-0.03125 0.164062,-0.0625 0.21875,-0.09375 L 4.328125,-1.96875 4.875,-0.203125 C 4.40625,0.0546875 3.867188,0.1875 3.265625,0.1875 2.859375,0.1875 2.503906,0.113281 2.203125,-0.03125 1.910156,-0.175781 1.6875,-0.367188 1.53125,-0.609375 1.382812,-0.847656 1.273438,-1.101562 1.203125,-1.375 1.140625,-1.644531 1.109375,-1.929688 1.109375,-2.234375 V -4.65625 h -0.90625 v -1.671875 z m 0,0"
           id="path29" />
      </g>
    </g>
  </g>
  <g
     fill="#000000"
     fill-opacity="1"
     id="g35"
     transform="translate(-1.7500046,-130.9456)">
    <g
       transform="translate(212.13914,173.62499)"
       id="g34">
      <g
         id="g33">
        <path
           d="m 0.9375,-9.84375 c 0.257812,-0.257812 0.566406,-0.390625 0.921875,-0.390625 0.351563,0 0.65625,0.132813 0.90625,0.390625 0.257813,0.25 0.390625,0.554688 0.390625,0.90625 0,0.355469 -0.132812,0.664062 -0.390625,0.921875 -0.25,0.25 -0.554687,0.375 -0.90625,0.375 -0.355469,0 -0.664063,-0.125 -0.921875,-0.375 -0.25,-0.257813 -0.375,-0.566406 -0.375,-0.921875 0,-0.351562 0.125,-0.65625 0.375,-0.90625 z M 0.734375,-6.328125 V 0 h 2.1875 v -6.328125 z m 0,0"
           id="path32" />
      </g>
    </g>
  </g>
  <g
     fill="#000000"
     fill-opacity="1"
     id="g38"
     transform="translate(-1.7500046,-130.9456)">
    <g
       transform="translate(215.86225,173.62499)"
       id="g37">
      <g
         id="g36">
        <path
           d="m 2.34375,-6.328125 1.546875,3.4375 1.53125,-3.4375 h 2.59375 L 4.625,0 H 3.140625 L -0.25,-6.328125 Z m 0,0"
           id="path35" />
      </g>
    </g>
  </g>
  <g
     fill="#000000"
     fill-opacity="1"
     id="g41"
     transform="translate(-1.7500046,-130.9456)">
    <g
       transform="translate(223.62898,173.62499)"
       id="g40">
      <g
         id="g39">
        <path
           d="m 1.171875,-0.78125 c -0.59375,-0.644531 -0.890625,-1.4375 -0.890625,-2.375 0,-0.9375 0.296875,-1.726562 0.890625,-2.375 0.59375,-0.65625 1.34375,-0.984375 2.25,-0.984375 0.84375,0 1.535156,0.265625 2.078125,0.796875 V -6.328125 H 7.6875 V 0 H 5.515625 V -0.71875 H 5.5 C 4.957031,-0.113281 4.265625,0.1875 3.421875,0.1875 c -0.90625,0 -1.65625,-0.320312 -2.25,-0.96875 z m 1.84375,-3.4375 c -0.28125,0.273438 -0.421875,0.625 -0.421875,1.0625 0,0.4375 0.132812,0.796875 0.40625,1.078125 0.28125,0.273437 0.640625,0.40625 1.078125,0.40625 0.425781,0 0.773437,-0.140625 1.046875,-0.421875 0.28125,-0.28125 0.421875,-0.632812 0.421875,-1.0625 0,-0.4375 -0.140625,-0.789062 -0.421875,-1.0625 C 4.84375,-4.5 4.492188,-4.640625 4.078125,-4.640625 c -0.417969,0 -0.773437,0.140625 -1.0625,0.421875 z m 0,0"
           id="path38" />
      </g>
    </g>
  </g>
  <g
     fill="#000000"
     fill-opacity="1"
     id="g47"
     transform="translate(-1.7500046,-130.9456)">
    <g
       transform="translate(235.41469,173.62499)"
       id="g46">
      <g
         id="g45">
        <path
           d="m 1.171875,-0.78125 c -0.59375,-0.644531 -0.890625,-1.4375 -0.890625,-2.375 0,-0.9375 0.296875,-1.726562 0.890625,-2.375 0.59375,-0.65625 1.34375,-0.984375 2.25,-0.984375 0.84375,0 1.535156,0.265625 2.078125,0.796875 v -4.890625 H 7.6875 V 0 H 5.515625 V -0.71875 H 5.5 C 4.957031,-0.113281 4.265625,0.1875 3.421875,0.1875 c -0.90625,0 -1.65625,-0.320312 -2.25,-0.96875 z m 1.84375,-3.4375 c -0.28125,0.273438 -0.421875,0.625 -0.421875,1.0625 0,0.4375 0.132812,0.796875 0.40625,1.078125 0.28125,0.273437 0.640625,0.40625 1.078125,0.40625 0.425781,0 0.773437,-0.140625 1.046875,-0.421875 0.28125,-0.28125 0.421875,-0.632812 0.421875,-1.0625 0,-0.4375 -0.140625,-0.789062 -0.421875,-1.0625 C 4.84375,-4.5 4.492188,-4.640625 4.078125,-4.640625 c -0.417969,0 -0.773437,0.140625 -1.0625,0.421875 z m 0,0"
           id="path44" />
      </g>
    </g>
  </g>
  <g
     fill="#000000"
     fill-opacity="1"
     id="g50"
     transform="translate(-1.7500046,-130.9456)">
    <g
       transform="translate(243.83482,173.62499)"
       id="g49">
      <g
         id="g48">
        <path
           d="m 7.140625,-2.859375 h -4.59375 c 0,0.449219 0.144531,0.78125 0.4375,1 0.289063,0.210937 0.601563,0.3125 0.9375,0.3125 0.351563,0 0.628906,-0.046875 0.828125,-0.140625 0.207031,-0.101562 0.445312,-0.289062 0.71875,-0.5625 l 1.578125,0.78125 C 6.378906,-0.363281 5.285156,0.1875 3.765625,0.1875 2.804688,0.1875 1.984375,-0.140625 1.296875,-0.796875 0.617188,-1.453125 0.28125,-2.238281 0.28125,-3.15625 c 0,-0.914062 0.335938,-1.703125 1.015625,-2.359375 0.6875,-0.664063 1.507813,-1 2.46875,-1 1,0 1.8125,0.292969 2.4375,0.875 0.632813,0.585937 0.953125,1.414063 0.953125,2.484375 0,0.148438 -0.00781,0.246094 -0.015625,0.296875 z M 2.609375,-4.0625 h 2.40625 C 4.960938,-4.394531 4.832031,-4.648438 4.625,-4.828125 4.414062,-5.003906 4.148438,-5.09375 3.828125,-5.09375 c -0.367187,0 -0.65625,0.09375 -0.875,0.28125 -0.210937,0.1875 -0.324219,0.4375 -0.34375,0.75 z m 0,0"
           id="path47" />
      </g>
    </g>
  </g>
  <g
     fill="#000000"
     fill-opacity="1"
     id="g56"
     transform="translate(-1.7500046,-130.9456)">
    <g
       transform="translate(254.63428,173.62499)"
       id="g55">
      <g
         id="g54">
        <path
           d="m 4.484375,-10.359375 c 0.550781,0 1.085937,0.08594 1.609375,0.25 0.53125,0.15625 0.925781,0.3125 1.1875,0.46875 l 0.359375,0.25 -0.9375,1.84375 c -0.074219,-0.050781 -0.179687,-0.113281 -0.3125,-0.1875 -0.125,-0.082031 -0.371094,-0.1875 -0.734375,-0.3125 C 5.289062,-8.179688 4.953125,-8.25 4.640625,-8.25 4.253906,-8.25 3.957031,-8.164062 3.75,-8 c -0.210938,0.167969 -0.3125,0.390625 -0.3125,0.671875 0,0.136719 0.046875,0.265625 0.140625,0.390625 0.101563,0.117188 0.273437,0.242188 0.515625,0.375 0.238281,0.136719 0.445312,0.246094 0.625,0.328125 0.1875,0.085937 0.46875,0.203125 0.84375,0.359375 0.65625,0.28125 1.210938,0.667969 1.671875,1.15625 0.46875,0.480469 0.703125,1.023438 0.703125,1.625 C 7.9375,-2.507812 7.832031,-2 7.625,-1.5625 7.414062,-1.125 7.128906,-0.78125 6.765625,-0.53125 6.398438,-0.289062 5.992188,-0.113281 5.546875,0 5.097656,0.125 4.617188,0.1875 4.109375,0.1875 3.660156,0.1875 3.222656,0.140625 2.796875,0.046875 2.367188,-0.046875 2.007812,-0.160156 1.71875,-0.296875 1.4375,-0.429688 1.179688,-0.5625 0.953125,-0.6875 0.722656,-0.820312 0.550781,-0.929688 0.4375,-1.015625 L 0.28125,-1.15625 1.4375,-3.109375 c 0.101562,0.085937 0.238281,0.195313 0.40625,0.328125 0.175781,0.125 0.484375,0.296875 0.921875,0.515625 0.4375,0.210937 0.828125,0.3125 1.171875,0.3125 0.976562,0 1.46875,-0.332031 1.46875,-1 0,-0.144531 -0.039062,-0.273437 -0.109375,-0.390625 -0.074219,-0.125 -0.199219,-0.242188 -0.375,-0.359375 -0.179687,-0.125 -0.335937,-0.21875 -0.46875,-0.28125 C 4.316406,-4.054688 4.09375,-4.164062 3.78125,-4.3125 3.476562,-4.457031 3.253906,-4.566406 3.109375,-4.640625 c -0.617187,-0.300781 -1.09375,-0.675781 -1.4375,-1.125 -0.335937,-0.457031 -0.5,-0.953125 -0.5,-1.484375 0,-0.914062 0.332031,-1.660156 1,-2.234375 0.675781,-0.582031 1.445313,-0.875 2.3125,-0.875 z m 0,0"
           id="path53" />
      </g>
    </g>
  </g>
  <g
     fill="#000000"
     fill-opacity="1"
     id="g59"
     transform="translate(-1.7500046,-130.9456)">
    <g
       transform="translate(262.91879,173.62499)"
       id="g58">
      <g
         id="g57">
        <path
           d="m 7.140625,-2.859375 h -4.59375 c 0,0.449219 0.144531,0.78125 0.4375,1 0.289063,0.210937 0.601563,0.3125 0.9375,0.3125 0.351563,0 0.628906,-0.046875 0.828125,-0.140625 0.207031,-0.101562 0.445312,-0.289062 0.71875,-0.5625 l 1.578125,0.78125 C 6.378906,-0.363281 5.285156,0.1875 3.765625,0.1875 2.804688,0.1875 1.984375,-0.140625 1.296875,-0.796875 0.617188,-1.453125 0.28125,-2.238281 0.28125,-3.15625 c 0,-0.914062 0.335938,-1.703125 1.015625,-2.359375 0.6875,-0.664063 1.507813,-1 2.46875,-1 1,0 1.8125,0.292969 2.4375,0.875 0.632813,0.585937 0.953125,1.414063 0.953125,2.484375 0,0.148438 -0.00781,0.246094 -0.015625,0.296875 z M 2.609375,-4.0625 h 2.40625 C 4.960938,-4.394531 4.832031,-4.648438 4.625,-4.828125 4.414062,-5.003906 4.148438,-5.09375 3.828125,-5.09375 c -0.367187,0 -0.65625,0.09375 -0.875,0.28125 -0.210937,0.1875 -0.324219,0.4375 -0.34375,0.75 z m 0,0"
           id="path56" />
      </g>
    </g>
  </g>
  <g
     fill="#000000"
     fill-opacity="1"
     id="g62"
     transform="translate(-1.7500046,-130.9456)">
    <g
       transform="translate(270.35267,173.62499)"
       id="g61">
      <g
         id="g60">
        <path
           d="m 0.734375,0 v -6.328125 h 2.1875 v 0.921875 h 0.03125 c 0.00781,-0.039062 0.03125,-0.082031 0.0625,-0.125 0.039063,-0.050781 0.125,-0.140625 0.25,-0.265625 0.125,-0.125 0.253906,-0.234375 0.390625,-0.328125 0.144531,-0.101562 0.328125,-0.191406 0.546875,-0.265625 0.21875,-0.082031 0.441406,-0.125 0.671875,-0.125 0.238281,0 0.472656,0.039063 0.703125,0.109375 0.238281,0.0625 0.410156,0.125 0.515625,0.1875 l 0.171875,0.109375 -0.921875,1.84375 c -0.273438,-0.226563 -0.648438,-0.34375 -1.125,-0.34375 -0.261719,0 -0.492188,0.058594 -0.6875,0.171875 C 3.34375,-4.320312 3.207031,-4.179688 3.125,-4.015625 3.050781,-3.847656 3,-3.707031 2.96875,-3.59375 2.9375,-3.476562 2.921875,-3.390625 2.921875,-3.328125 V 0 Z m 0,0"
           id="path59" />
      </g>
    </g>
  </g>
  <g
     fill="#000000"
     fill-opacity="1"
     id="g65"
     transform="translate(-1.7500046,-130.9456)">
    <g
       transform="translate(276.49209,173.62499)"
       id="g64">
      <g
         id="g63">
        <path
           d="m 2.34375,-6.328125 1.546875,3.4375 1.53125,-3.4375 h 2.59375 L 4.625,0 H 3.140625 L -0.25,-6.328125 Z m 0,0"
           id="path62" />
      </g>
    </g>
  </g>
  <g
     fill="#000000"
     fill-opacity="1"
     id="g68"
     transform="translate(-1.7500046,-130.9456)">
    <g
       transform="translate(284.25883,173.62499)"
       id="g67">
      <g
         id="g66">
        <path
           d="m 0.9375,-9.84375 c 0.257812,-0.257812 0.566406,-0.390625 0.921875,-0.390625 0.351563,0 0.65625,0.132813 0.90625,0.390625 0.257813,0.25 0.390625,0.554688 0.390625,0.90625 0,0.355469 -0.132812,0.664062 -0.390625,0.921875 -0.25,0.25 -0.554687,0.375 -0.90625,0.375 -0.355469,0 -0.664063,-0.125 -0.921875,-0.375 -0.25,-0.257813 -0.375,-0.566406 -0.375,-0.921875 0,-0.351562 0.125,-0.65625 0.375,-0.90625 z M 0.734375,-6.328125 V 0 h 2.1875 v -6.328125 z m 0,0"
           id="path65" />
      </g>
    </g>
  </g>
  <g
     fill="#000000"
     fill-opacity="1"
     id="g71"
     transform="translate(-1.7500046,-130.9456)">
    <g
       transform="translate(287.98194,173.62499)"
       id="g70">
      <g
         id="g69">
        <path
           d="m 4.109375,-4.71875 c -0.417969,0 -0.777344,0.152344 -1.078125,0.453125 -0.292969,0.304687 -0.4375,0.667969 -0.4375,1.09375 0,0.4375 0.144531,0.808594 0.4375,1.109375 0.300781,0.304688 0.660156,0.453125 1.078125,0.453125 0.195313,0 0.382813,-0.019531 0.5625,-0.0625 0.175781,-0.050781 0.300781,-0.101563 0.375,-0.15625 l 0.125,-0.078125 0.734375,1.53125 c -0.0625,0.03125 -0.148438,0.078125 -0.25,0.140625 -0.09375,0.0625 -0.328125,0.1484375 -0.703125,0.25 C 4.585938,0.128906 4.195312,0.1875 3.78125,0.1875 c -0.929688,0 -1.746094,-0.328125 -2.453125,-0.984375 -0.699219,-0.65625 -1.046875,-1.4375 -1.046875,-2.34375 0,-0.925781 0.347656,-1.71875 1.046875,-2.375 0.707031,-0.664063 1.523437,-1 2.453125,-1 0.414062,0 0.800781,0.054687 1.15625,0.15625 0.351562,0.09375 0.609375,0.195313 0.765625,0.296875 l 0.203125,0.140625 -0.734375,1.5 c -0.273437,-0.195313 -0.625,-0.296875 -1.0625,-0.296875 z m 0,0"
           id="path68" />
      </g>
    </g>
  </g>
  <g
     fill="#000000"
     fill-opacity="1"
     id="g74"
     transform="translate(-1.7500046,-130.9456)">
    <g
       transform="translate(294.03506,173.62499)"
       id="g73">
      <g
         id="g72">
        <path
           d="m 0.9375,-9.84375 c 0.257812,-0.257812 0.566406,-0.390625 0.921875,-0.390625 0.351563,0 0.65625,0.132813 0.90625,0.390625 0.257813,0.25 0.390625,0.554688 0.390625,0.90625 0,0.355469 -0.132812,0.664062 -0.390625,0.921875 -0.25,0.25 -0.554687,0.375 -0.90625,0.375 -0.355469,0 -0.664063,-0.125 -0.921875,-0.375 -0.25,-0.257813 -0.375,-0.566406 -0.375,-0.921875 0,-0.351562 0.125,-0.65625 0.375,-0.90625 z M 0.734375,-6.328125 V 0 h 2.1875 v -6.328125 z m 0,0"
           id="path71" />
      </g>
    </g>
  </g>
  <g
     fill="#000000"
     fill-opacity="1"
     id="g77"
     transform="translate(-1.7500046,-130.9456)">
    <g
       transform="translate(297.75816,173.62499)"
       id="g76">
      <g
         id="g75">
        <path
           d="M 1.328125,-0.75 C 0.628906,-1.375 0.28125,-2.175781 0.28125,-3.15625 c 0,-0.976562 0.363281,-1.78125 1.09375,-2.40625 0.738281,-0.632812 1.644531,-0.953125 2.71875,-0.953125 1.0625,0 1.953125,0.320313 2.671875,0.953125 0.726563,0.636719 1.09375,1.4375 1.09375,2.40625 0,0.96875 -0.355469,1.773438 -1.0625,2.40625 C 6.085938,-0.125 5.1875,0.1875 4.09375,0.1875 2.957031,0.1875 2.035156,-0.125 1.328125,-0.75 Z m 1.6875,-3.46875 c -0.28125,0.273438 -0.421875,0.625 -0.421875,1.0625 0,0.4375 0.132812,0.796875 0.40625,1.078125 0.28125,0.273437 0.640625,0.40625 1.078125,0.40625 0.425781,0 0.773437,-0.140625 1.046875,-0.421875 0.28125,-0.28125 0.421875,-0.632812 0.421875,-1.0625 0,-0.4375 -0.140625,-0.789062 -0.421875,-1.0625 C 4.84375,-4.5 4.492188,-4.640625 4.078125,-4.640625 c -0.417969,0 -0.773437,0.140625 -1.0625,0.421875 z m 0,0"
           id="path74" />
      </g>
    </g>
  </g>
  <g
     fill="#000000"
     fill-opacity="1"
     id="g80"
     transform="translate(-1.7500046,-130.9456)">
    <g
       transform="translate(305.90707,173.62499)"
       id="g79">
      <g
         id="g78">
        <path
           d="m 3.484375,-6.515625 c 0.363281,0 0.722656,0.042969 1.078125,0.125 0.351562,0.085937 0.613281,0.167969 0.78125,0.25 l 0.265625,0.125 -0.71875,1.421875 c -0.492187,-0.257812 -0.960937,-0.390625 -1.40625,-0.390625 -0.242187,0 -0.414063,0.03125 -0.515625,0.09375 -0.105469,0.054687 -0.15625,0.152344 -0.15625,0.296875 0,0.03125 0,0.0625 0,0.09375 0.00781,0.03125 0.023438,0.0625 0.046875,0.09375 0.03125,0.03125 0.054687,0.058594 0.078125,0.078125 0.019531,0.023437 0.054688,0.042969 0.109375,0.0625 0.050781,0.023437 0.085937,0.042969 0.109375,0.0625 0.03125,0.011719 0.078125,0.027344 0.140625,0.046875 0.070313,0.023438 0.125,0.042969 0.15625,0.0625 0.03125,0.011719 0.082031,0.03125 0.15625,0.0625 C 3.691406,-4.007812 3.753906,-4 3.796875,-4 c 0.25,0.074219 0.46875,0.15625 0.65625,0.25 0.195313,0.09375 0.398437,0.21875 0.609375,0.375 0.207031,0.15625 0.367188,0.355469 0.484375,0.59375 0.113281,0.242188 0.171875,0.511719 0.171875,0.8125 0,1.4375 -1,2.15625 -3,2.15625 -0.449219,0 -0.875,-0.070312 -1.28125,-0.203125 C 1.03125,-0.160156 0.738281,-0.300781 0.5625,-0.4375 L 0.28125,-0.671875 1.171875,-2.15625 c 0.0625,0.054688 0.144531,0.121094 0.25,0.203125 0.113281,0.074219 0.304687,0.179687 0.578125,0.3125 0.28125,0.136719 0.523438,0.203125 0.734375,0.203125 0.457031,0 0.6875,-0.148438 0.6875,-0.453125 0,-0.132813 -0.0625,-0.238281 -0.1875,-0.3125 C 3.117188,-2.285156 2.925781,-2.375 2.65625,-2.46875 2.382812,-2.570312 2.171875,-2.664062 2.015625,-2.75 1.617188,-2.957031 1.304688,-3.1875 1.078125,-3.4375 0.847656,-3.695312 0.734375,-4.039062 0.734375,-4.46875 c 0,-0.644531 0.242187,-1.144531 0.734375,-1.5 0.5,-0.363281 1.171875,-0.546875 2.015625,-0.546875 z m 0,0"
           id="path77" />
      </g>
    </g>
  </g>
  <g
     fill="#000000"
     fill-opacity="1"
     id="g86"
     transform="translate(-1.7500046,-130.9456)">
    <g
       transform="translate(315.3381,173.62499)"
       id="g85">
      <g
         id="g84">
        <path
           d="m 0.734375,-10.171875 h 3.71875 c 1.03125,0 1.863281,0.273437 2.5,0.8125 0.644531,0.53125 0.96875,1.308594 0.96875,2.328125 0,1.011719 -0.324219,1.808594 -0.96875,2.390625 -0.648437,0.585937 -1.480469,0.875 -2.5,0.875 H 3.0625 V 0 H 0.734375 Z M 3.0625,-5.625 h 0.640625 c 0.519531,0 0.945313,-0.101562 1.28125,-0.3125 0.332031,-0.207031 0.5,-0.550781 0.5,-1.03125 0,-0.476562 -0.167969,-0.820312 -0.5,-1.03125 C 4.648438,-8.21875 4.222656,-8.328125 3.703125,-8.328125 H 3.0625 Z m 0,0"
           id="path83" />
      </g>
    </g>
  </g>
  <g
     fill="#000000"
     fill-opacity="1"
     id="g89"
     transform="translate(-1.7500046,-130.9456)">
    <g
       transform="translate(323.54865,173.62499)"
       id="g88">
      <g
         id="g87">
        <path
           d="m 3.3125,-8.1875 2.5,-2.171875 L 6.9375,-8.9375 4,-7.234375 Z m -2.703125,1.859375 v 3.546875 c 0,1.054688 0.269531,1.8125 0.8125,2.28125 0.550781,0.4609375 1.421875,0.6875 2.609375,0.6875 1.195312,0 2.066406,-0.2265625 2.609375,-0.6875 C 7.191406,-0.96875 7.46875,-1.726562 7.46875,-2.78125 V -6.328125 H 5.28125 V -3.3125 c 0,0.625 -0.09375,1.070312 -0.28125,1.328125 -0.1875,0.261719 -0.511719,0.390625 -0.96875,0.390625 -0.449219,0 -0.765625,-0.128906 -0.953125,-0.390625 C 2.890625,-2.242188 2.796875,-2.6875 2.796875,-3.3125 v -3.015625 z m 0,0"
           id="path86" />
      </g>
    </g>
  </g>
  <g
     fill="#000000"
     fill-opacity="1"
     id="g92"
     transform="translate(-1.7500046,-130.9456)">
    <g
       transform="translate(331.63591,173.62499)"
       id="g91">
      <g
         id="g90">
        <path
           d="m 7.25,-5.53125 c 0.59375,0.648438 0.890625,1.4375 0.890625,2.375 0,0.9375 -0.296875,1.730469 -0.890625,2.375 C 6.65625,-0.132812 5.90625,0.1875 5,0.1875 4.15625,0.1875 3.460938,-0.113281 2.921875,-0.71875 H 2.890625 V 0 h -2.15625 v -10.609375 h 2.1875 V -5.71875 C 3.460938,-6.25 4.15625,-6.515625 5,-6.515625 c 0.90625,0 1.65625,0.328125 2.25,0.984375 z M 5.40625,-2.078125 C 5.675781,-2.359375 5.8125,-2.71875 5.8125,-3.15625 c 0,-0.4375 -0.140625,-0.789062 -0.421875,-1.0625 C 5.109375,-4.5 4.757812,-4.640625 4.34375,-4.640625 3.925781,-4.640625 3.578125,-4.5 3.296875,-4.21875 3.015625,-3.945312 2.875,-3.59375 2.875,-3.15625 c 0,0.429688 0.132812,0.78125 0.40625,1.0625 0.28125,0.28125 0.632812,0.421875 1.0625,0.421875 0.4375,0 0.789062,-0.132813 1.0625,-0.40625 z m 0,0"
           id="path89" />
      </g>
    </g>
  </g>
  <g
     fill="#000000"
     fill-opacity="1"
     id="g95"
     transform="translate(-1.7500046,-130.9456)">
    <g
       transform="translate(340.05604,173.62499)"
       id="g94">
      <g
         id="g93">
        <path
           d="m 0.734375,0 v -10.609375 h 2.1875 V 0 Z m 0,0"
           id="path92" />
      </g>
    </g>
  </g>
  <g
     fill="#000000"
     fill-opacity="1"
     id="g98"
     transform="translate(-1.7500046,-130.9456)">
    <g
       transform="translate(343.71748,173.62499)"
       id="g97">
      <g
         id="g96">
        <path
           d="m 0.9375,-9.84375 c 0.257812,-0.257812 0.566406,-0.390625 0.921875,-0.390625 0.351563,0 0.65625,0.132813 0.90625,0.390625 0.257813,0.25 0.390625,0.554688 0.390625,0.90625 0,0.355469 -0.132812,0.664062 -0.390625,0.921875 -0.25,0.25 -0.554687,0.375 -0.90625,0.375 -0.355469,0 -0.664063,-0.125 -0.921875,-0.375 -0.25,-0.257813 -0.375,-0.566406 -0.375,-0.921875 0,-0.351562 0.125,-0.65625 0.375,-0.90625 z M 0.734375,-6.328125 V 0 h 2.1875 v -6.328125 z m 0,0"
           id="path95" />
      </g>
    </g>
  </g>
  <g
     fill="#000000"
     fill-opacity="1"
     id="g101"
     transform="translate(-1.7500046,-130.9456)">
    <g
       transform="translate(347.44059,173.62499)"
       id="g100">
      <g
         id="g99">
        <path
           d="m 4.109375,-4.71875 c -0.417969,0 -0.777344,0.152344 -1.078125,0.453125 -0.292969,0.304687 -0.4375,0.667969 -0.4375,1.09375 0,0.4375 0.144531,0.808594 0.4375,1.109375 0.300781,0.304688 0.660156,0.453125 1.078125,0.453125 0.195313,0 0.382813,-0.019531 0.5625,-0.0625 0.175781,-0.050781 0.300781,-0.101563 0.375,-0.15625 l 0.125,-0.078125 0.734375,1.53125 c -0.0625,0.03125 -0.148438,0.078125 -0.25,0.140625 -0.09375,0.0625 -0.328125,0.1484375 -0.703125,0.25 C 4.585938,0.128906 4.195312,0.1875 3.78125,0.1875 c -0.929688,0 -1.746094,-0.328125 -2.453125,-0.984375 -0.699219,-0.65625 -1.046875,-1.4375 -1.046875,-2.34375 0,-0.925781 0.347656,-1.71875 1.046875,-2.375 0.707031,-0.664063 1.523437,-1 2.453125,-1 0.414062,0 0.800781,0.054687 1.15625,0.15625 0.351562,0.09375 0.609375,0.195313 0.765625,0.296875 l 0.203125,0.140625 -0.734375,1.5 c -0.273437,-0.195313 -0.625,-0.296875 -1.0625,-0.296875 z m 0,0"
           id="path98" />
      </g>
    </g>
  </g>
  <g
     fill="#000000"
     fill-opacity="1"
     id="g104"
     transform="translate(-1.7500046,-130.9456)">
    <g
       transform="translate(353.49371,173.62499)"
       id="g103">
      <g
         id="g102">
        <path
           d="M 1.328125,-0.75 C 0.628906,-1.375 0.28125,-2.175781 0.28125,-3.15625 c 0,-0.976562 0.363281,-1.78125 1.09375,-2.40625 0.738281,-0.632812 1.644531,-0.953125 2.71875,-0.953125 1.0625,0 1.953125,0.320313 2.671875,0.953125 0.726563,0.636719 1.09375,1.4375 1.09375,2.40625 0,0.96875 -0.355469,1.773438 -1.0625,2.40625 C 6.085938,-0.125 5.1875,0.1875 4.09375,0.1875 2.957031,0.1875 2.035156,-0.125 1.328125,-0.75 Z m 1.6875,-3.46875 c -0.28125,0.273438 -0.421875,0.625 -0.421875,1.0625 0,0.4375 0.132812,0.796875 0.40625,1.078125 0.28125,0.273437 0.640625,0.40625 1.078125,0.40625 0.425781,0 0.773437,-0.140625 1.046875,-0.421875 0.28125,-0.28125 0.421875,-0.632812 0.421875,-1.0625 0,-0.4375 -0.140625,-0.789062 -0.421875,-1.0625 C 4.84375,-4.5 4.492188,-4.640625 4.078125,-4.640625 c -0.417969,0 -0.773437,0.140625 -1.0625,0.421875 z m 0,0"
           id="path101" />
      </g>
    </g>
  </g>
  <g
     fill="#000000"
     fill-opacity="1"
     id="g107"
     transform="translate(-1.7500046,-130.9456)">
    <g
       transform="translate(361.64262,173.62499)"
       id="g106">
      <g
         id="g105">
        <path
           d="m 3.484375,-6.515625 c 0.363281,0 0.722656,0.042969 1.078125,0.125 0.351562,0.085937 0.613281,0.167969 0.78125,0.25 l 0.265625,0.125 -0.71875,1.421875 c -0.492187,-0.257812 -0.960937,-0.390625 -1.40625,-0.390625 -0.242187,0 -0.414063,0.03125 -0.515625,0.09375 -0.105469,0.054687 -0.15625,0.152344 -0.15625,0.296875 0,0.03125 0,0.0625 0,0.09375 0.00781,0.03125 0.023438,0.0625 0.046875,0.09375 0.03125,0.03125 0.054687,0.058594 0.078125,0.078125 0.019531,0.023437 0.054688,0.042969 0.109375,0.0625 0.050781,0.023437 0.085937,0.042969 0.109375,0.0625 0.03125,0.011719 0.078125,0.027344 0.140625,0.046875 0.070313,0.023438 0.125,0.042969 0.15625,0.0625 0.03125,0.011719 0.082031,0.03125 0.15625,0.0625 C 3.691406,-4.007812 3.753906,-4 3.796875,-4 c 0.25,0.074219 0.46875,0.15625 0.65625,0.25 0.195313,0.09375 0.398437,0.21875 0.609375,0.375 0.207031,0.15625 0.367188,0.355469 0.484375,0.59375 0.113281,0.242188 0.171875,0.511719 0.171875,0.8125 0,1.4375 -1,2.15625 -3,2.15625 -0.449219,0 -0.875,-0.070312 -1.28125,-0.203125 C 1.03125,-0.160156 0.738281,-0.300781 0.5625,-0.4375 L 0.28125,-0.671875 1.171875,-2.15625 c 0.0625,0.054688 0.144531,0.121094 0.25,0.203125 0.113281,0.074219 0.304687,0.179687 0.578125,0.3125 0.28125,0.136719 0.523438,0.203125 0.734375,0.203125 0.457031,0 0.6875,-0.148438 0.6875,-0.453125 0,-0.132813 -0.0625,-0.238281 -0.1875,-0.3125 C 3.117188,-2.285156 2.925781,-2.375 2.65625,-2.46875 2.382812,-2.570312 2.171875,-2.664062 2.015625,-2.75 1.617188,-2.957031 1.304688,-3.1875 1.078125,-3.4375 0.847656,-3.695312 0.734375,-4.039062 0.734375,-4.46875 c 0,-0.644531 0.242187,-1.144531 0.734375,-1.5 0.5,-0.363281 1.171875,-0.546875 2.015625,-0.546875 z m 0,0"
           id="path104" />
      </g>
    </g>
  </g>
  <g
     fill="#000000"
     fill-opacity="1"
     id="g110"
     transform="translate(-1.7500046,-130.9456)">
    <g
       transform="translate(367.70805,173.62499)"
       id="g109">
      <g
         id="g108">
        <path
           d="m 2.140625,-2.640625 c 0.394531,0 0.726563,0.140625 1,0.421875 0.28125,0.273438 0.421875,0.605469 0.421875,1 C 3.5625,0 2.867188,1.175781 1.484375,2.3125 l -0.625,-0.515625 c 0.0625,-0.054687 0.132813,-0.125 0.21875,-0.21875 0.082031,-0.09375 0.207031,-0.292969 0.375,-0.59375 C 1.628906,0.679688 1.742188,0.378906 1.796875,0.078125 1.484375,0.00390625 1.226562,-0.144531 1.03125,-0.375 0.832031,-0.613281 0.734375,-0.894531 0.734375,-1.21875 c 0,-0.394531 0.132813,-0.726562 0.40625,-1 0.28125,-0.28125 0.613281,-0.421875 1,-0.421875 z m 0,0"
           id="path107" />
      </g>
    </g>
  </g>
  <g
     fill="#000000"
     fill-opacity="1"
     id="g116"
     transform="translate(-1.7500046,-130.9456)">
    <g
       transform="translate(169.39225,190.87499)"
       id="g115">
      <g
         id="g114">
        <path
           d="m 4.484375,-10.359375 c 0.550781,0 1.085937,0.08594 1.609375,0.25 0.53125,0.15625 0.925781,0.3125 1.1875,0.46875 l 0.359375,0.25 -0.9375,1.84375 c -0.074219,-0.050781 -0.179687,-0.113281 -0.3125,-0.1875 -0.125,-0.082031 -0.371094,-0.1875 -0.734375,-0.3125 C 5.289062,-8.179688 4.953125,-8.25 4.640625,-8.25 4.253906,-8.25 3.957031,-8.164062 3.75,-8 c -0.210938,0.167969 -0.3125,0.390625 -0.3125,0.671875 0,0.136719 0.046875,0.265625 0.140625,0.390625 0.101563,0.117188 0.273437,0.242188 0.515625,0.375 0.238281,0.136719 0.445312,0.246094 0.625,0.328125 0.1875,0.085937 0.46875,0.203125 0.84375,0.359375 0.65625,0.28125 1.210938,0.667969 1.671875,1.15625 0.46875,0.480469 0.703125,1.023438 0.703125,1.625 C 7.9375,-2.507812 7.832031,-2 7.625,-1.5625 7.414062,-1.125 7.128906,-0.78125 6.765625,-0.53125 6.398438,-0.289062 5.992188,-0.113281 5.546875,0 5.097656,0.125 4.617188,0.1875 4.109375,0.1875 3.660156,0.1875 3.222656,0.140625 2.796875,0.046875 2.367188,-0.046875 2.007812,-0.160156 1.71875,-0.296875 1.4375,-0.429688 1.179688,-0.5625 0.953125,-0.6875 0.722656,-0.820312 0.550781,-0.929688 0.4375,-1.015625 L 0.28125,-1.15625 1.4375,-3.109375 c 0.101562,0.085937 0.238281,0.195313 0.40625,0.328125 0.175781,0.125 0.484375,0.296875 0.921875,0.515625 0.4375,0.210937 0.828125,0.3125 1.171875,0.3125 0.976562,0 1.46875,-0.332031 1.46875,-1 0,-0.144531 -0.039062,-0.273437 -0.109375,-0.390625 -0.074219,-0.125 -0.199219,-0.242188 -0.375,-0.359375 -0.179687,-0.125 -0.335937,-0.21875 -0.46875,-0.28125 C 4.316406,-4.054688 4.09375,-4.164062 3.78125,-4.3125 3.476562,-4.457031 3.253906,-4.566406 3.109375,-4.640625 c -0.617187,-0.300781 -1.09375,-0.675781 -1.4375,-1.125 -0.335937,-0.457031 -0.5,-0.953125 -0.5,-1.484375 0,-0.914062 0.332031,-1.660156 1,-2.234375 0.675781,-0.582031 1.445313,-0.875 2.3125,-0.875 z m 0,0"
           id="path113" />
      </g>
    </g>
  </g>
  <g
     fill="#000000"
     fill-opacity="1"
     id="g119"
     transform="translate(-1.7500046,-130.9456)">
    <g
       transform="translate(177.67677,190.87499)"
       id="g118">
      <g
         id="g117">
        <path
           d="M 1.328125,-0.75 C 0.628906,-1.375 0.28125,-2.175781 0.28125,-3.15625 c 0,-0.976562 0.363281,-1.78125 1.09375,-2.40625 0.738281,-0.632812 1.644531,-0.953125 2.71875,-0.953125 1.0625,0 1.953125,0.320313 2.671875,0.953125 0.726563,0.636719 1.09375,1.4375 1.09375,2.40625 0,0.96875 -0.355469,1.773438 -1.0625,2.40625 C 6.085938,-0.125 5.1875,0.1875 4.09375,0.1875 2.957031,0.1875 2.035156,-0.125 1.328125,-0.75 Z m 1.6875,-3.46875 c -0.28125,0.273438 -0.421875,0.625 -0.421875,1.0625 0,0.4375 0.132812,0.796875 0.40625,1.078125 0.28125,0.273437 0.640625,0.40625 1.078125,0.40625 0.425781,0 0.773437,-0.140625 1.046875,-0.421875 0.28125,-0.28125 0.421875,-0.632812 0.421875,-1.0625 0,-0.4375 -0.140625,-0.789062 -0.421875,-1.0625 C 4.84375,-4.5 4.492188,-4.640625 4.078125,-4.640625 c -0.417969,0 -0.773437,0.140625 -1.0625,0.421875 z m 0,0"
           id="path116" />
      </g>
    </g>
  </g>
  <g
     fill="#000000"
     fill-opacity="1"
     id="g122"
     transform="translate(-1.7500046,-130.9456)">
    <g
       transform="translate(185.82567,190.87499)"
       id="g121">
      <g
         id="g120">
        <path
           d="m 4.109375,-4.71875 c -0.417969,0 -0.777344,0.152344 -1.078125,0.453125 -0.292969,0.304687 -0.4375,0.667969 -0.4375,1.09375 0,0.4375 0.144531,0.808594 0.4375,1.109375 0.300781,0.304688 0.660156,0.453125 1.078125,0.453125 0.195313,0 0.382813,-0.019531 0.5625,-0.0625 0.175781,-0.050781 0.300781,-0.101563 0.375,-0.15625 l 0.125,-0.078125 0.734375,1.53125 c -0.0625,0.03125 -0.148438,0.078125 -0.25,0.140625 -0.09375,0.0625 -0.328125,0.1484375 -0.703125,0.25 C 4.585938,0.128906 4.195312,0.1875 3.78125,0.1875 c -0.929688,0 -1.746094,-0.328125 -2.453125,-0.984375 -0.699219,-0.65625 -1.046875,-1.4375 -1.046875,-2.34375 0,-0.925781 0.347656,-1.71875 1.046875,-2.375 0.707031,-0.664063 1.523437,-1 2.453125,-1 0.414062,0 0.800781,0.054687 1.15625,0.15625 0.351562,0.09375 0.609375,0.195313 0.765625,0.296875 l 0.203125,0.140625 -0.734375,1.5 c -0.273437,-0.195313 -0.625,-0.296875 -1.0625,-0.296875 z m 0,0"
           id="path119" />
      </g>
    </g>
  </g>
  <g
     fill="#000000"
     fill-opacity="1"
     id="g125"
     transform="translate(-1.7500046,-130.9456)">
    <g
       transform="translate(191.8788,190.87499)"
       id="g124">
      <g
         id="g123">
        <path
           d="m 0.9375,-9.84375 c 0.257812,-0.257812 0.566406,-0.390625 0.921875,-0.390625 0.351563,0 0.65625,0.132813 0.90625,0.390625 0.257813,0.25 0.390625,0.554688 0.390625,0.90625 0,0.355469 -0.132812,0.664062 -0.390625,0.921875 -0.25,0.25 -0.554687,0.375 -0.90625,0.375 -0.355469,0 -0.664063,-0.125 -0.921875,-0.375 -0.25,-0.257813 -0.375,-0.566406 -0.375,-0.921875 0,-0.351562 0.125,-0.65625 0.375,-0.90625 z M 0.734375,-6.328125 V 0 h 2.1875 v -6.328125 z m 0,0"
           id="path122" />
      </g>
    </g>
  </g>
  <g
     fill="#000000"
     fill-opacity="1"
     id="g128"
     transform="translate(-1.7500046,-130.9456)">
    <g
       transform="translate(195.6019,190.87499)"
       id="g127">
      <g
         id="g126">
        <path
           d="m 1.171875,-0.78125 c -0.59375,-0.644531 -0.890625,-1.4375 -0.890625,-2.375 0,-0.9375 0.296875,-1.726562 0.890625,-2.375 0.59375,-0.65625 1.34375,-0.984375 2.25,-0.984375 0.84375,0 1.535156,0.265625 2.078125,0.796875 V -6.328125 H 7.6875 V 0 H 5.515625 V -0.71875 H 5.5 C 4.957031,-0.113281 4.265625,0.1875 3.421875,0.1875 c -0.90625,0 -1.65625,-0.320312 -2.25,-0.96875 z m 1.84375,-3.4375 c -0.28125,0.273438 -0.421875,0.625 -0.421875,1.0625 0,0.4375 0.132812,0.796875 0.40625,1.078125 0.28125,0.273437 0.640625,0.40625 1.078125,0.40625 0.425781,0 0.773437,-0.140625 1.046875,-0.421875 0.28125,-0.28125 0.421875,-0.632812 0.421875,-1.0625 0,-0.4375 -0.140625,-0.789062 -0.421875,-1.0625 C 4.84375,-4.5 4.492188,-4.640625 4.078125,-4.640625 c -0.417969,0 -0.773437,0.140625 -1.0625,0.421875 z m 0,0"
           id="path125" />
      </g>
    </g>
  </g>
  <g
     fill="#000000"
     fill-opacity="1"
     id="g131"
     transform="translate(-1.7500046,-130.9456)">
    <g
       transform="translate(204.02203,190.87499)"
       id="g130">
      <g
         id="g129">
        <path
           d="m 0.734375,0 v -10.609375 h 2.1875 V 0 Z m 0,0"
           id="path128" />
      </g>
    </g>
  </g>
  <g
     fill="#000000"
     fill-opacity="1"
     id="g134"
     transform="translate(-1.7500046,-130.9456)">
    <g
       transform="translate(207.68349,190.87499)"
       id="g133">
      <g
         id="g132">
        <path
           d="m 7.140625,-2.859375 h -4.59375 c 0,0.449219 0.144531,0.78125 0.4375,1 0.289063,0.210937 0.601563,0.3125 0.9375,0.3125 0.351563,0 0.628906,-0.046875 0.828125,-0.140625 0.207031,-0.101562 0.445312,-0.289062 0.71875,-0.5625 l 1.578125,0.78125 C 6.378906,-0.363281 5.285156,0.1875 3.765625,0.1875 2.804688,0.1875 1.984375,-0.140625 1.296875,-0.796875 0.617188,-1.453125 0.28125,-2.238281 0.28125,-3.15625 c 0,-0.914062 0.335938,-1.703125 1.015625,-2.359375 0.6875,-0.664063 1.507813,-1 2.46875,-1 1,0 1.8125,0.292969 2.4375,0.875 0.632813,0.585937 0.953125,1.414063 0.953125,2.484375 0,0.148438 -0.00781,0.246094 -0.015625,0.296875 z M 2.609375,-4.0625 h 2.40625 C 4.960938,-4.394531 4.832031,-4.648438 4.625,-4.828125 4.414062,-5.003906 4.148438,-5.09375 3.828125,-5.09375 c -0.367187,0 -0.65625,0.09375 -0.875,0.28125 -0.210937,0.1875 -0.324219,0.4375 -0.34375,0.75 z m 0,0"
           id="path131" />
      </g>
    </g>
  </g>
  <g
     fill="#000000"
     fill-opacity="1"
     id="g137"
     transform="translate(-1.7500046,-130.9456)">
    <g
       transform="translate(215.11736,190.87499)"
       id="g136">
      <g
         id="g135">
        <path
           d="m 3.484375,-6.515625 c 0.363281,0 0.722656,0.042969 1.078125,0.125 0.351562,0.085937 0.613281,0.167969 0.78125,0.25 l 0.265625,0.125 -0.71875,1.421875 c -0.492187,-0.257812 -0.960937,-0.390625 -1.40625,-0.390625 -0.242187,0 -0.414063,0.03125 -0.515625,0.09375 -0.105469,0.054687 -0.15625,0.152344 -0.15625,0.296875 0,0.03125 0,0.0625 0,0.09375 0.00781,0.03125 0.023438,0.0625 0.046875,0.09375 0.03125,0.03125 0.054687,0.058594 0.078125,0.078125 0.019531,0.023437 0.054688,0.042969 0.109375,0.0625 0.050781,0.023437 0.085937,0.042969 0.109375,0.0625 0.03125,0.011719 0.078125,0.027344 0.140625,0.046875 0.070313,0.023438 0.125,0.042969 0.15625,0.0625 0.03125,0.011719 0.082031,0.03125 0.15625,0.0625 C 3.691406,-4.007812 3.753906,-4 3.796875,-4 c 0.25,0.074219 0.46875,0.15625 0.65625,0.25 0.195313,0.09375 0.398437,0.21875 0.609375,0.375 0.207031,0.15625 0.367188,0.355469 0.484375,0.59375 0.113281,0.242188 0.171875,0.511719 0.171875,0.8125 0,1.4375 -1,2.15625 -3,2.15625 -0.449219,0 -0.875,-0.070312 -1.28125,-0.203125 C 1.03125,-0.160156 0.738281,-0.300781 0.5625,-0.4375 L 0.28125,-0.671875 1.171875,-2.15625 c 0.0625,0.054688 0.144531,0.121094 0.25,0.203125 0.113281,0.074219 0.304687,0.179687 0.578125,0.3125 0.28125,0.136719 0.523438,0.203125 0.734375,0.203125 0.457031,0 0.6875,-0.148438 0.6875,-0.453125 0,-0.132813 -0.0625,-0.238281 -0.1875,-0.3125 C 3.117188,-2.285156 2.925781,-2.375 2.65625,-2.46875 2.382812,-2.570312 2.171875,-2.664062 2.015625,-2.75 1.617188,-2.957031 1.304688,-3.1875 1.078125,-3.4375 0.847656,-3.695312 0.734375,-4.039062 0.734375,-4.46875 c 0,-0.644531 0.242187,-1.144531 0.734375,-1.5 0.5,-0.363281 1.171875,-0.546875 2.015625,-0.546875 z m 0,0"
           id="path134" />
      </g>
    </g>
  </g>
  <g
     fill="#000000"
     fill-opacity="1"
     id="g140"
     transform="translate(-1.7500046,-130.9456)">
    <g
       transform="translate(221.18281,190.87499)"
       id="g139">
      <g
         id="g138">
        <path
           d="m 2.140625,-2.640625 c 0.394531,0 0.726563,0.140625 1,0.421875 0.28125,0.273438 0.421875,0.605469 0.421875,1 C 3.5625,0 2.867188,1.175781 1.484375,2.3125 l -0.625,-0.515625 c 0.0625,-0.054687 0.132813,-0.125 0.21875,-0.21875 0.082031,-0.09375 0.207031,-0.292969 0.375,-0.59375 C 1.628906,0.679688 1.742188,0.378906 1.796875,0.078125 1.484375,0.00390625 1.226562,-0.144531 1.03125,-0.375 0.832031,-0.613281 0.734375,-0.894531 0.734375,-1.21875 c 0,-0.394531 0.132813,-0.726562 0.40625,-1 0.28125,-0.28125 0.613281,-0.421875 1,-0.421875 z m 0,0"
           id="path137" />
      </g>
    </g>
  </g>
  <g
     fill="#000000"
     fill-opacity="1"
     id="g146"
     transform="translate(-1.7500046,-130.9456)">
    <g
       transform="translate(228.85091,190.87499)"
       id="g145">
      <g
         id="g144">
        <path
           d="m 1.171875,-0.78125 c -0.59375,-0.644531 -0.890625,-1.4375 -0.890625,-2.375 0,-0.9375 0.296875,-1.726562 0.890625,-2.375 0.59375,-0.65625 1.34375,-0.984375 2.25,-0.984375 0.84375,0 1.535156,0.265625 2.078125,0.796875 v -4.890625 H 7.6875 V 0 H 5.515625 V -0.71875 H 5.5 C 4.957031,-0.113281 4.265625,0.1875 3.421875,0.1875 c -0.90625,0 -1.65625,-0.320312 -2.25,-0.96875 z m 1.84375,-3.4375 c -0.28125,0.273438 -0.421875,0.625 -0.421875,1.0625 0,0.4375 0.132812,0.796875 0.40625,1.078125 0.28125,0.273437 0.640625,0.40625 1.078125,0.40625 0.425781,0 0.773437,-0.140625 1.046875,-0.421875 0.28125,-0.28125 0.421875,-0.632812 0.421875,-1.0625 0,-0.4375 -0.140625,-0.789062 -0.421875,-1.0625 C 4.84375,-4.5 4.492188,-4.640625 4.078125,-4.640625 c -0.417969,0 -0.773437,0.140625 -1.0625,0.421875 z m 0,0"
           id="path143" />
      </g>
    </g>
  </g>
  <g
     fill="#000000"
     fill-opacity="1"
     id="g149"
     transform="translate(-1.7500046,-130.9456)">
    <g
       transform="translate(237.27104,190.87499)"
       id="g148">
      <g
         id="g147">
        <path
           d="m 7.140625,-2.859375 h -4.59375 c 0,0.449219 0.144531,0.78125 0.4375,1 0.289063,0.210937 0.601563,0.3125 0.9375,0.3125 0.351563,0 0.628906,-0.046875 0.828125,-0.140625 0.207031,-0.101562 0.445312,-0.289062 0.71875,-0.5625 l 1.578125,0.78125 C 6.378906,-0.363281 5.285156,0.1875 3.765625,0.1875 2.804688,0.1875 1.984375,-0.140625 1.296875,-0.796875 0.617188,-1.453125 0.28125,-2.238281 0.28125,-3.15625 c 0,-0.914062 0.335938,-1.703125 1.015625,-2.359375 0.6875,-0.664063 1.507813,-1 2.46875,-1 1,0 1.8125,0.292969 2.4375,0.875 0.632813,0.585937 0.953125,1.414063 0.953125,2.484375 0,0.148438 -0.00781,0.246094 -0.015625,0.296875 z M 2.609375,-4.0625 h 2.40625 C 4.960938,-4.394531 4.832031,-4.648438 4.625,-4.828125 4.414062,-5.003906 4.148438,-5.09375 3.828125,-5.09375 c -0.367187,0 -0.65625,0.09375 -0.875,0.28125 -0.210937,0.1875 -0.324219,0.4375 -0.34375,0.75 z m 0,0"
           id="path146" />
      </g>
    </g>
  </g>
  <g
     fill="#000000"
     fill-opacity="1"
     id="g155"
     transform="translate(-1.7500046,-130.9456)">
    <g
       transform="translate(248.0705,190.87499)"
       id="g154">
      <g
         id="g153">
        <path
           d="M 5.90625,-10.171875 10.015625,0 h -2.5 l -0.75,-2.03125 h -3.875 L 2.140625,0 H -0.34375 L 3.765625,-10.171875 Z M 5.984375,-4.0625 4.84375,-7.03125 H 4.8125 l -1.125,2.96875 z m 0,0"
           id="path152" />
      </g>
    </g>
  </g>
  <g
     fill="#000000"
     fill-opacity="1"
     id="g158"
     transform="translate(-1.7500046,-130.9456)">
    <g
       transform="translate(257.73576,190.87499)"
       id="g157">
      <g
         id="g156">
        <path
           d="m 3.484375,-6.515625 c 0.363281,0 0.722656,0.042969 1.078125,0.125 0.351562,0.085937 0.613281,0.167969 0.78125,0.25 l 0.265625,0.125 -0.71875,1.421875 c -0.492187,-0.257812 -0.960937,-0.390625 -1.40625,-0.390625 -0.242187,0 -0.414063,0.03125 -0.515625,0.09375 -0.105469,0.054687 -0.15625,0.152344 -0.15625,0.296875 0,0.03125 0,0.0625 0,0.09375 0.00781,0.03125 0.023438,0.0625 0.046875,0.09375 0.03125,0.03125 0.054687,0.058594 0.078125,0.078125 0.019531,0.023437 0.054688,0.042969 0.109375,0.0625 0.050781,0.023437 0.085937,0.042969 0.109375,0.0625 0.03125,0.011719 0.078125,0.027344 0.140625,0.046875 0.070313,0.023438 0.125,0.042969 0.15625,0.0625 0.03125,0.011719 0.082031,0.03125 0.15625,0.0625 C 3.691406,-4.007812 3.753906,-4 3.796875,-4 c 0.25,0.074219 0.46875,0.15625 0.65625,0.25 0.195313,0.09375 0.398437,0.21875 0.609375,0.375 0.207031,0.15625 0.367188,0.355469 0.484375,0.59375 0.113281,0.242188 0.171875,0.511719 0.171875,0.8125 0,1.4375 -1,2.15625 -3,2.15625 -0.449219,0 -0.875,-0.070312 -1.28125,-0.203125 C 1.03125,-0.160156 0.738281,-0.300781 0.5625,-0.4375 L 0.28125,-0.671875 1.171875,-2.15625 c 0.0625,0.054688 0.144531,0.121094 0.25,0.203125 0.113281,0.074219 0.304687,0.179687 0.578125,0.3125 0.28125,0.136719 0.523438,0.203125 0.734375,0.203125 0.457031,0 0.6875,-0.148438 0.6875,-0.453125 0,-0.132813 -0.0625,-0.238281 -0.1875,-0.3125 C 3.117188,-2.285156 2.925781,-2.375 2.65625,-2.46875 2.382812,-2.570312 2.171875,-2.664062 2.015625,-2.75 1.617188,-2.957031 1.304688,-3.1875 1.078125,-3.4375 0.847656,-3.695312 0.734375,-4.039062 0.734375,-4.46875 c 0,-0.644531 0.242187,-1.144531 0.734375,-1.5 0.5,-0.363281 1.171875,-0.546875 2.015625,-0.546875 z m 0,0"
           id="path155" />
      </g>
    </g>
  </g>
  <g
     fill="#000000"
     fill-opacity="1"
     id="g161"
     transform="translate(-1.7500046,-130.9456)">
    <g
       transform="translate(263.80121,190.87499)"
       id="g160">
      <g
         id="g159">
        <path
           d="m 0.9375,-9.84375 c 0.257812,-0.257812 0.566406,-0.390625 0.921875,-0.390625 0.351563,0 0.65625,0.132813 0.90625,0.390625 0.257813,0.25 0.390625,0.554688 0.390625,0.90625 0,0.355469 -0.132812,0.664062 -0.390625,0.921875 -0.25,0.25 -0.554687,0.375 -0.90625,0.375 -0.355469,0 -0.664063,-0.125 -0.921875,-0.375 -0.25,-0.257813 -0.375,-0.566406 -0.375,-0.921875 0,-0.351562 0.125,-0.65625 0.375,-0.90625 z M 0.734375,-6.328125 V 0 h 2.1875 v -6.328125 z m 0,0"
           id="path158" />
      </g>
    </g>
  </g>
  <g
     fill="#000000"
     fill-opacity="1"
     id="g164"
     transform="translate(-1.7500046,-130.9456)">
    <g
       transform="translate(267.52432,190.87499)"
       id="g163">
      <g
         id="g162">
        <path
           d="m 3.484375,-6.515625 c 0.363281,0 0.722656,0.042969 1.078125,0.125 0.351562,0.085937 0.613281,0.167969 0.78125,0.25 l 0.265625,0.125 -0.71875,1.421875 c -0.492187,-0.257812 -0.960937,-0.390625 -1.40625,-0.390625 -0.242187,0 -0.414063,0.03125 -0.515625,0.09375 -0.105469,0.054687 -0.15625,0.152344 -0.15625,0.296875 0,0.03125 0,0.0625 0,0.09375 0.00781,0.03125 0.023438,0.0625 0.046875,0.09375 0.03125,0.03125 0.054687,0.058594 0.078125,0.078125 0.019531,0.023437 0.054688,0.042969 0.109375,0.0625 0.050781,0.023437 0.085937,0.042969 0.109375,0.0625 0.03125,0.011719 0.078125,0.027344 0.140625,0.046875 0.070313,0.023438 0.125,0.042969 0.15625,0.0625 0.03125,0.011719 0.082031,0.03125 0.15625,0.0625 C 3.691406,-4.007812 3.753906,-4 3.796875,-4 c 0.25,0.074219 0.46875,0.15625 0.65625,0.25 0.195313,0.09375 0.398437,0.21875 0.609375,0.375 0.207031,0.15625 0.367188,0.355469 0.484375,0.59375 0.113281,0.242188 0.171875,0.511719 0.171875,0.8125 0,1.4375 -1,2.15625 -3,2.15625 -0.449219,0 -0.875,-0.070312 -1.28125,-0.203125 C 1.03125,-0.160156 0.738281,-0.300781 0.5625,-0.4375 L 0.28125,-0.671875 1.171875,-2.15625 c 0.0625,0.054688 0.144531,0.121094 0.25,0.203125 0.113281,0.074219 0.304687,0.179687 0.578125,0.3125 0.28125,0.136719 0.523438,0.203125 0.734375,0.203125 0.457031,0 0.6875,-0.148438 0.6875,-0.453125 0,-0.132813 -0.0625,-0.238281 -0.1875,-0.3125 C 3.117188,-2.285156 2.925781,-2.375 2.65625,-2.46875 2.382812,-2.570312 2.171875,-2.664062 2.015625,-2.75 1.617188,-2.957031 1.304688,-3.1875 1.078125,-3.4375 0.847656,-3.695312 0.734375,-4.039062 0.734375,-4.46875 c 0,-0.644531 0.242187,-1.144531 0.734375,-1.5 0.5,-0.363281 1.171875,-0.546875 2.015625,-0.546875 z m 0,0"
           id="path161" />
      </g>
    </g>
  </g>
  <g
     fill="#000000"
     fill-opacity="1"
     id="g167"
     transform="translate(-1.7500046,-130.9456)">
    <g
       transform="translate(273.58977,190.87499)"
       id="g166">
      <g
         id="g165">
        <path
           d="m 1.109375,-6.328125 v -2.34375 h 2.1875 v 2.34375 H 4.625 V -4.65625 H 3.296875 v 2 c 0,0.585938 0.160156,0.875 0.484375,0.875 0.082031,0 0.164062,-0.015625 0.25,-0.046875 0.09375,-0.03125 0.164062,-0.0625 0.21875,-0.09375 L 4.328125,-1.96875 4.875,-0.203125 C 4.40625,0.0546875 3.867188,0.1875 3.265625,0.1875 2.859375,0.1875 2.503906,0.113281 2.203125,-0.03125 1.910156,-0.175781 1.6875,-0.367188 1.53125,-0.609375 1.382812,-0.847656 1.273438,-1.101562 1.203125,-1.375 1.140625,-1.644531 1.109375,-1.929688 1.109375,-2.234375 V -4.65625 h -0.90625 v -1.671875 z m 0,0"
           id="path164" />
      </g>
    </g>
  </g>
  <g
     fill="#000000"
     fill-opacity="1"
     id="g170"
     transform="translate(-1.7500046,-130.9456)">
    <g
       transform="translate(278.45939,190.87499)"
       id="g169">
      <g
         id="g168">
        <path
           d="m 7.140625,-2.859375 h -4.59375 c 0,0.449219 0.144531,0.78125 0.4375,1 0.289063,0.210937 0.601563,0.3125 0.9375,0.3125 0.351563,0 0.628906,-0.046875 0.828125,-0.140625 0.207031,-0.101562 0.445312,-0.289062 0.71875,-0.5625 l 1.578125,0.78125 C 6.378906,-0.363281 5.285156,0.1875 3.765625,0.1875 2.804688,0.1875 1.984375,-0.140625 1.296875,-0.796875 0.617188,-1.453125 0.28125,-2.238281 0.28125,-3.15625 c 0,-0.914062 0.335938,-1.703125 1.015625,-2.359375 0.6875,-0.664063 1.507813,-1 2.46875,-1 1,0 1.8125,0.292969 2.4375,0.875 0.632813,0.585937 0.953125,1.414063 0.953125,2.484375 0,0.148438 -0.00781,0.246094 -0.015625,0.296875 z M 2.609375,-4.0625 h 2.40625 C 4.960938,-4.394531 4.832031,-4.648438 4.625,-4.828125 4.414062,-5.003906 4.148438,-5.09375 3.828125,-5.09375 c -0.367187,0 -0.65625,0.09375 -0.875,0.28125 -0.210937,0.1875 -0.324219,0.4375 -0.34375,0.75 z m 0,0"
           id="path167" />
      </g>
    </g>
  </g>
  <g
     fill="#000000"
     fill-opacity="1"
     id="g173"
     transform="translate(-1.7500046,-130.9456)">
    <g
       transform="translate(285.89326,190.87499)"
       id="g172">
      <g
         id="g171">
        <path
           d="m 0.734375,0 v -6.328125 h 2.1875 v 0.671875 h 0.03125 c 0.5625,-0.570312 1.164063,-0.859375 1.8125,-0.859375 0.3125,0 0.617187,0.042969 0.921875,0.125 C 6,-6.304688 6.296875,-6.175781 6.578125,-6 c 0.28125,0.167969 0.507813,0.414062 0.6875,0.734375 0.175781,0.3125 0.265625,0.679687 0.265625,1.09375 V 0 h -2.1875 v -3.578125 c 0,-0.320313 -0.105469,-0.609375 -0.3125,-0.859375 -0.210938,-0.25 -0.480469,-0.375 -0.8125,-0.375 -0.335938,0 -0.636719,0.132812 -0.90625,0.390625 -0.261719,0.25 -0.390625,0.53125 -0.390625,0.84375 V 0 Z m 0,0"
           id="path170" />
      </g>
    </g>
  </g>
  <g
     fill="#000000"
     fill-opacity="1"
     id="g176"
     transform="translate(-1.7500046,-130.9456)">
    <g
       transform="translate(294.04216,190.87499)"
       id="g175">
      <g
         id="g174">
        <path
           d="m 4.109375,-4.71875 c -0.417969,0 -0.777344,0.152344 -1.078125,0.453125 -0.292969,0.304687 -0.4375,0.667969 -0.4375,1.09375 0,0.4375 0.144531,0.808594 0.4375,1.109375 0.300781,0.304688 0.660156,0.453125 1.078125,0.453125 0.195313,0 0.382813,-0.019531 0.5625,-0.0625 0.175781,-0.050781 0.300781,-0.101563 0.375,-0.15625 l 0.125,-0.078125 0.734375,1.53125 c -0.0625,0.03125 -0.148438,0.078125 -0.25,0.140625 -0.09375,0.0625 -0.328125,0.1484375 -0.703125,0.25 C 4.585938,0.128906 4.195312,0.1875 3.78125,0.1875 c -0.929688,0 -1.746094,-0.328125 -2.453125,-0.984375 -0.699219,-0.65625 -1.046875,-1.4375 -1.046875,-2.34375 0,-0.925781 0.347656,-1.71875 1.046875,-2.375 0.707031,-0.664063 1.523437,-1 2.453125,-1 0.414062,0 0.800781,0.054687 1.15625,0.15625 0.351562,0.09375 0.609375,0.195313 0.765625,0.296875 l 0.203125,0.140625 -0.734375,1.5 c -0.273437,-0.195313 -0.625,-0.296875 -1.0625,-0.296875 z m 0,0"
           id="path173" />
      </g>
    </g>
  </g>
  <g
     fill="#000000"
     fill-opacity="1"
     id="g179"
     transform="translate(-1.7500046,-130.9456)">
    <g
       transform="translate(300.09529,190.87499)"
       id="g178">
      <g
         id="g177">
        <path
           d="m 0.9375,-9.84375 c 0.257812,-0.257812 0.566406,-0.390625 0.921875,-0.390625 0.351563,0 0.65625,0.132813 0.90625,0.390625 0.257813,0.25 0.390625,0.554688 0.390625,0.90625 0,0.355469 -0.132812,0.664062 -0.390625,0.921875 -0.25,0.25 -0.554687,0.375 -0.90625,0.375 -0.355469,0 -0.664063,-0.125 -0.921875,-0.375 -0.25,-0.257813 -0.375,-0.566406 -0.375,-0.921875 0,-0.351562 0.125,-0.65625 0.375,-0.90625 z M 0.734375,-6.328125 V 0 h 2.1875 v -6.328125 z m 0,0"
           id="path176" />
      </g>
    </g>
  </g>
  <g
     fill="#000000"
     fill-opacity="1"
     id="g182"
     transform="translate(-1.7500046,-130.9456)">
    <g
       transform="translate(303.81839,190.87499)"
       id="g181">
      <g
         id="g180">
        <path
           d="m 1.171875,-0.78125 c -0.59375,-0.644531 -0.890625,-1.4375 -0.890625,-2.375 0,-0.9375 0.296875,-1.726562 0.890625,-2.375 0.59375,-0.65625 1.34375,-0.984375 2.25,-0.984375 0.84375,0 1.535156,0.265625 2.078125,0.796875 V -6.328125 H 7.6875 V 0 H 5.515625 V -0.71875 H 5.5 C 4.957031,-0.113281 4.265625,0.1875 3.421875,0.1875 c -0.90625,0 -1.65625,-0.320312 -2.25,-0.96875 z m 1.84375,-3.4375 c -0.28125,0.273438 -0.421875,0.625 -0.421875,1.0625 0,0.4375 0.132812,0.796875 0.40625,1.078125 0.28125,0.273437 0.640625,0.40625 1.078125,0.40625 0.425781,0 0.773437,-0.140625 1.046875,-0.421875 0.28125,-0.28125 0.421875,-0.632812 0.421875,-1.0625 0,-0.4375 -0.140625,-0.789062 -0.421875,-1.0625 C 4.84375,-4.5 4.492188,-4.640625 4.078125,-4.640625 c -0.417969,0 -0.773437,0.140625 -1.0625,0.421875 z m 0,0"
           id="path179" />
      </g>
    </g>
  </g>
  <g
     fill="#000000"
     fill-opacity="1"
     id="g188"
     transform="translate(-1.7500046,-130.9456)">
    <g
       transform="translate(315.6041,190.87499)"
       id="g187">
      <g
         id="g186">
        <path
           d="m 4.484375,-10.359375 c 0.550781,0 1.085937,0.08594 1.609375,0.25 0.53125,0.15625 0.925781,0.3125 1.1875,0.46875 l 0.359375,0.25 -0.9375,1.84375 c -0.074219,-0.050781 -0.179687,-0.113281 -0.3125,-0.1875 -0.125,-0.082031 -0.371094,-0.1875 -0.734375,-0.3125 C 5.289062,-8.179688 4.953125,-8.25 4.640625,-8.25 4.253906,-8.25 3.957031,-8.164062 3.75,-8 c -0.210938,0.167969 -0.3125,0.390625 -0.3125,0.671875 0,0.136719 0.046875,0.265625 0.140625,0.390625 0.101563,0.117188 0.273437,0.242188 0.515625,0.375 0.238281,0.136719 0.445312,0.246094 0.625,0.328125 0.1875,0.085937 0.46875,0.203125 0.84375,0.359375 0.65625,0.28125 1.210938,0.667969 1.671875,1.15625 0.46875,0.480469 0.703125,1.023438 0.703125,1.625 C 7.9375,-2.507812 7.832031,-2 7.625,-1.5625 7.414062,-1.125 7.128906,-0.78125 6.765625,-0.53125 6.398438,-0.289062 5.992188,-0.113281 5.546875,0 5.097656,0.125 4.617188,0.1875 4.109375,0.1875 3.660156,0.1875 3.222656,0.140625 2.796875,0.046875 2.367188,-0.046875 2.007812,-0.160156 1.71875,-0.296875 1.4375,-0.429688 1.179688,-0.5625 0.953125,-0.6875 0.722656,-0.820312 0.550781,-0.929688 0.4375,-1.015625 L 0.28125,-1.15625 1.4375,-3.109375 c 0.101562,0.085937 0.238281,0.195313 0.40625,0.328125 0.175781,0.125 0.484375,0.296875 0.921875,0.515625 0.4375,0.210937 0.828125,0.3125 1.171875,0.3125 0.976562,0 1.46875,-0.332031 1.46875,-1 0,-0.144531 -0.039062,-0.273437 -0.109375,-0.390625 -0.074219,-0.125 -0.199219,-0.242188 -0.375,-0.359375 -0.179687,-0.125 -0.335937,-0.21875 -0.46875,-0.28125 C 4.316406,-4.054688 4.09375,-4.164062 3.78125,-4.3125 3.476562,-4.457031 3.253906,-4.566406 3.109375,-4.640625 c -0.617187,-0.300781 -1.09375,-0.675781 -1.4375,-1.125 -0.335937,-0.457031 -0.5,-0.953125 -0.5,-1.484375 0,-0.914062 0.332031,-1.660156 1,-2.234375 0.675781,-0.582031 1.445313,-0.875 2.3125,-0.875 z m 0,0"
           id="path185" />
      </g>
    </g>
  </g>
  <g
     fill="#000000"
     fill-opacity="1"
     id="g191"
     transform="translate(-1.7500046,-130.9456)">
    <g
       transform="translate(323.88862,190.87499)"
       id="g190">
      <g
         id="g189">
        <path
           d="M 1.328125,-0.75 C 0.628906,-1.375 0.28125,-2.175781 0.28125,-3.15625 c 0,-0.976562 0.363281,-1.78125 1.09375,-2.40625 0.738281,-0.632812 1.644531,-0.953125 2.71875,-0.953125 1.0625,0 1.953125,0.320313 2.671875,0.953125 0.726563,0.636719 1.09375,1.4375 1.09375,2.40625 0,0.96875 -0.355469,1.773438 -1.0625,2.40625 C 6.085938,-0.125 5.1875,0.1875 4.09375,0.1875 2.957031,0.1875 2.035156,-0.125 1.328125,-0.75 Z m 1.6875,-3.46875 c -0.28125,0.273438 -0.421875,0.625 -0.421875,1.0625 0,0.4375 0.132812,0.796875 0.40625,1.078125 0.28125,0.273437 0.640625,0.40625 1.078125,0.40625 0.425781,0 0.773437,-0.140625 1.046875,-0.421875 0.28125,-0.28125 0.421875,-0.632812 0.421875,-1.0625 0,-0.4375 -0.140625,-0.789062 -0.421875,-1.0625 C 4.84375,-4.5 4.492188,-4.640625 4.078125,-4.640625 c -0.417969,0 -0.773437,0.140625 -1.0625,0.421875 z m 0,0"
           id="path188" />
      </g>
    </g>
  </g>
  <g
     fill="#000000"
     fill-opacity="1"
     id="g194"
     transform="translate(-1.7500046,-130.9456)">
    <g
       transform="translate(332.03752,190.87499)"
       id="g193">
      <g
         id="g192">
        <path
           d="m 4.109375,-4.71875 c -0.417969,0 -0.777344,0.152344 -1.078125,0.453125 -0.292969,0.304687 -0.4375,0.667969 -0.4375,1.09375 0,0.4375 0.144531,0.808594 0.4375,1.109375 0.300781,0.304688 0.660156,0.453125 1.078125,0.453125 0.195313,0 0.382813,-0.019531 0.5625,-0.0625 0.175781,-0.050781 0.300781,-0.101563 0.375,-0.15625 l 0.125,-0.078125 0.734375,1.53125 c -0.0625,0.03125 -0.148438,0.078125 -0.25,0.140625 -0.09375,0.0625 -0.328125,0.1484375 -0.703125,0.25 C 4.585938,0.128906 4.195312,0.1875 3.78125,0.1875 c -0.929688,0 -1.746094,-0.328125 -2.453125,-0.984375 -0.699219,-0.65625 -1.046875,-1.4375 -1.046875,-2.34375 0,-0.925781 0.347656,-1.71875 1.046875,-2.375 0.707031,-0.664063 1.523437,-1 2.453125,-1 0.414062,0 0.800781,0.054687 1.15625,0.15625 0.351562,0.09375 0.609375,0.195313 0.765625,0.296875 l 0.203125,0.140625 -0.734375,1.5 c -0.273437,-0.195313 -0.625,-0.296875 -1.0625,-0.296875 z m 0,0"
           id="path191" />
      </g>
    </g>
  </g>
  <g
     fill="#000000"
     fill-opacity="1"
     id="g197"
     transform="translate(-1.7500046,-130.9456)">
    <g
       transform="translate(338.09064,190.87499)"
       id="g196">
      <g
         id="g195">
        <path
           d="m 0.9375,-9.84375 c 0.257812,-0.257812 0.566406,-0.390625 0.921875,-0.390625 0.351563,0 0.65625,0.132813 0.90625,0.390625 0.257813,0.25 0.390625,0.554688 0.390625,0.90625 0,0.355469 -0.132812,0.664062 -0.390625,0.921875 -0.25,0.25 -0.554687,0.375 -0.90625,0.375 -0.355469,0 -0.664063,-0.125 -0.921875,-0.375 -0.25,-0.257813 -0.375,-0.566406 -0.375,-0.921875 0,-0.351562 0.125,-0.65625 0.375,-0.90625 z M 0.734375,-6.328125 V 0 h 2.1875 v -6.328125 z m 0,0"
           id="path194" />
      </g>
    </g>
  </g>
  <g
     fill="#000000"
     fill-opacity="1"
     id="g200"
     transform="translate(-1.7500046,-130.9456)">
    <g
       transform="translate(341.81375,190.87499)"
       id="g199">
      <g
         id="g198">
        <path
           d="m 1.171875,-0.78125 c -0.59375,-0.644531 -0.890625,-1.4375 -0.890625,-2.375 0,-0.9375 0.296875,-1.726562 0.890625,-2.375 0.59375,-0.65625 1.34375,-0.984375 2.25,-0.984375 0.84375,0 1.535156,0.265625 2.078125,0.796875 V -6.328125 H 7.6875 V 0 H 5.515625 V -0.71875 H 5.5 C 4.957031,-0.113281 4.265625,0.1875 3.421875,0.1875 c -0.90625,0 -1.65625,-0.320312 -2.25,-0.96875 z m 1.84375,-3.4375 c -0.28125,0.273438 -0.421875,0.625 -0.421875,1.0625 0,0.4375 0.132812,0.796875 0.40625,1.078125 0.28125,0.273437 0.640625,0.40625 1.078125,0.40625 0.425781,0 0.773437,-0.140625 1.046875,-0.421875 0.28125,-0.28125 0.421875,-0.632812 0.421875,-1.0625 0,-0.4375 -0.140625,-0.789062 -0.421875,-1.0625 C 4.84375,-4.5 4.492188,-4.640625 4.078125,-4.640625 c -0.417969,0 -0.773437,0.140625 -1.0625,0.421875 z m 0,0"
           id="path197" />
      </g>
    </g>
  </g>
  <g
     fill="#000000"
     fill-opacity="1"
     id="g203"
     transform="translate(-1.7500046,-130.9456)">
    <g
       transform="translate(350.23388,190.87499)"
       id="g202">
      <g
         id="g201">
        <path
           d="m 0.734375,0 v -10.609375 h 2.1875 V 0 Z m 0,0"
           id="path200" />
      </g>
    </g>
  </g>
  <g
     fill="#000000"
     fill-opacity="1"
     id="g209"
     transform="translate(-1.7500046,-130.9456)">
    <g
       transform="translate(169.04069,208.12499)"
       id="g208">
      <g
         id="g207">
        <path
           d="m 5.53125,-6.328125 h 2.515625 l -4.96875,9.53125 H 0.5625 l 2.1875,-4.1875 -3,-5.34375 h 2.515625 l 1.765625,3.25 z m 0,0"
           id="path206" />
      </g>
    </g>
  </g>
  <g
     fill="#000000"
     fill-opacity="1"
     id="g215"
     transform="translate(-1.7500046,-130.9456)">
    <g
       transform="translate(180.20999,208.12499)"
       id="g214">
      <g
         id="g213">
        <path
           d="M 3.921875,0 -0.34375,-10.171875 h 2.609375 l 2.5625,6.6875 2.5625,-6.6875 h 2.625 L 5.75,0 Z m 0,0"
           id="path212" />
      </g>
    </g>
  </g>
  <g
     fill="#000000"
     fill-opacity="1"
     id="g218"
     transform="translate(-1.7500046,-130.9456)">
    <g
       transform="translate(189.87526,208.12499)"
       id="g217">
      <g
         id="g216">
        <path
           d="m 0.9375,-9.84375 c 0.257812,-0.257812 0.566406,-0.390625 0.921875,-0.390625 0.351563,0 0.65625,0.132813 0.90625,0.390625 0.257813,0.25 0.390625,0.554688 0.390625,0.90625 0,0.355469 -0.132812,0.664062 -0.390625,0.921875 -0.25,0.25 -0.554687,0.375 -0.90625,0.375 -0.355469,0 -0.664063,-0.125 -0.921875,-0.375 -0.25,-0.257813 -0.375,-0.566406 -0.375,-0.921875 0,-0.351562 0.125,-0.65625 0.375,-0.90625 z M 0.734375,-6.328125 V 0 h 2.1875 v -6.328125 z m 0,0"
           id="path215" />
      </g>
    </g>
  </g>
  <g
     fill="#000000"
     fill-opacity="1"
     id="g221"
     transform="translate(-1.7500046,-130.9456)">
    <g
       transform="translate(193.59836,208.12499)"
       id="g220">
      <g
         id="g219">
        <path
           d="m 2.34375,-6.328125 1.546875,3.4375 1.53125,-3.4375 h 2.59375 L 4.625,0 H 3.140625 L -0.25,-6.328125 Z m 0,0"
           id="path218" />
      </g>
    </g>
  </g>
  <g
     fill="#000000"
     fill-opacity="1"
     id="g224"
     transform="translate(-1.7500046,-130.9456)">
    <g
       transform="translate(201.3651,208.12499)"
       id="g223">
      <g
         id="g222">
        <path
           d="m 0.9375,-9.84375 c 0.257812,-0.257812 0.566406,-0.390625 0.921875,-0.390625 0.351563,0 0.65625,0.132813 0.90625,0.390625 0.257813,0.25 0.390625,0.554688 0.390625,0.90625 0,0.355469 -0.132812,0.664062 -0.390625,0.921875 -0.25,0.25 -0.554687,0.375 -0.90625,0.375 -0.355469,0 -0.664063,-0.125 -0.921875,-0.375 -0.25,-0.257813 -0.375,-0.566406 -0.375,-0.921875 0,-0.351562 0.125,-0.65625 0.375,-0.90625 z M 0.734375,-6.328125 V 0 h 2.1875 v -6.328125 z m 0,0"
           id="path221" />
      </g>
    </g>
  </g>
  <g
     fill="#000000"
     fill-opacity="1"
     id="g227"
     transform="translate(-1.7500046,-130.9456)">
    <g
       transform="translate(205.08821,208.12499)"
       id="g226">
      <g
         id="g225">
        <path
           d="m 7.140625,-2.859375 h -4.59375 c 0,0.449219 0.144531,0.78125 0.4375,1 0.289063,0.210937 0.601563,0.3125 0.9375,0.3125 0.351563,0 0.628906,-0.046875 0.828125,-0.140625 0.207031,-0.101562 0.445312,-0.289062 0.71875,-0.5625 l 1.578125,0.78125 C 6.378906,-0.363281 5.285156,0.1875 3.765625,0.1875 2.804688,0.1875 1.984375,-0.140625 1.296875,-0.796875 0.617188,-1.453125 0.28125,-2.238281 0.28125,-3.15625 c 0,-0.914062 0.335938,-1.703125 1.015625,-2.359375 0.6875,-0.664063 1.507813,-1 2.46875,-1 1,0 1.8125,0.292969 2.4375,0.875 0.632813,0.585937 0.953125,1.414063 0.953125,2.484375 0,0.148438 -0.00781,0.246094 -0.015625,0.296875 z M 2.609375,-4.0625 h 2.40625 C 4.960938,-4.394531 4.832031,-4.648438 4.625,-4.828125 4.414062,-5.003906 4.148438,-5.09375 3.828125,-5.09375 c -0.367187,0 -0.65625,0.09375 -0.875,0.28125 -0.210937,0.1875 -0.324219,0.4375 -0.34375,0.75 z m 0,0"
           id="path224" />
      </g>
    </g>
  </g>
  <g
     fill="#000000"
     fill-opacity="1"
     id="g230"
     transform="translate(-1.7500046,-130.9456)">
    <g
       transform="translate(212.52208,208.12499)"
       id="g229">
      <g
         id="g228">
        <path
           d="m 0.734375,0 v -6.328125 h 2.1875 v 0.671875 h 0.03125 c 0.5625,-0.570312 1.164063,-0.859375 1.8125,-0.859375 0.3125,0 0.617187,0.042969 0.921875,0.125 C 6,-6.304688 6.296875,-6.175781 6.578125,-6 c 0.28125,0.167969 0.507813,0.414062 0.6875,0.734375 0.175781,0.3125 0.265625,0.679687 0.265625,1.09375 V 0 h -2.1875 v -3.578125 c 0,-0.320313 -0.105469,-0.609375 -0.3125,-0.859375 -0.210938,-0.25 -0.480469,-0.375 -0.8125,-0.375 -0.335938,0 -0.636719,0.132812 -0.90625,0.390625 -0.261719,0.25 -0.390625,0.53125 -0.390625,0.84375 V 0 Z m 0,0"
           id="path227" />
      </g>
    </g>
  </g>
  <g
     fill="#000000"
     fill-opacity="1"
     id="g233"
     transform="translate(-1.7500046,-130.9456)">
    <g
       transform="translate(220.67098,208.12499)"
       id="g232">
      <g
         id="g231">
        <path
           d="m 1.171875,-0.78125 c -0.59375,-0.644531 -0.890625,-1.4375 -0.890625,-2.375 0,-0.9375 0.296875,-1.726562 0.890625,-2.375 0.59375,-0.65625 1.34375,-0.984375 2.25,-0.984375 0.84375,0 1.535156,0.265625 2.078125,0.796875 v -4.890625 H 7.6875 V 0 H 5.515625 V -0.71875 H 5.5 C 4.957031,-0.113281 4.265625,0.1875 3.421875,0.1875 c -0.90625,0 -1.65625,-0.320312 -2.25,-0.96875 z m 1.84375,-3.4375 c -0.28125,0.273438 -0.421875,0.625 -0.421875,1.0625 0,0.4375 0.132812,0.796875 0.40625,1.078125 0.28125,0.273437 0.640625,0.40625 1.078125,0.40625 0.425781,0 0.773437,-0.140625 1.046875,-0.421875 0.28125,-0.28125 0.421875,-0.632812 0.421875,-1.0625 0,-0.4375 -0.140625,-0.789062 -0.421875,-1.0625 C 4.84375,-4.5 4.492188,-4.640625 4.078125,-4.640625 c -0.417969,0 -0.773437,0.140625 -1.0625,0.421875 z m 0,0"
           id="path230" />
      </g>
    </g>
  </g>
  <g
     fill="#000000"
     fill-opacity="1"
     id="g236"
     transform="translate(-1.7500046,-130.9456)">
    <g
       transform="translate(229.09111,208.12499)"
       id="g235">
      <g
         id="g234">
        <path
           d="m 1.171875,-0.78125 c -0.59375,-0.644531 -0.890625,-1.4375 -0.890625,-2.375 0,-0.9375 0.296875,-1.726562 0.890625,-2.375 0.59375,-0.65625 1.34375,-0.984375 2.25,-0.984375 0.84375,0 1.535156,0.265625 2.078125,0.796875 V -6.328125 H 7.6875 V 0 H 5.515625 V -0.71875 H 5.5 C 4.957031,-0.113281 4.265625,0.1875 3.421875,0.1875 c -0.90625,0 -1.65625,-0.320312 -2.25,-0.96875 z m 1.84375,-3.4375 c -0.28125,0.273438 -0.421875,0.625 -0.421875,1.0625 0,0.4375 0.132812,0.796875 0.40625,1.078125 0.28125,0.273437 0.640625,0.40625 1.078125,0.40625 0.425781,0 0.773437,-0.140625 1.046875,-0.421875 0.28125,-0.28125 0.421875,-0.632812 0.421875,-1.0625 0,-0.4375 -0.140625,-0.789062 -0.421875,-1.0625 C 4.84375,-4.5 4.492188,-4.640625 4.078125,-4.640625 c -0.417969,0 -0.773437,0.140625 -1.0625,0.421875 z m 0,0"
           id="path233" />
      </g>
    </g>
  </g>
  <g
     fill="#000000"
     fill-opacity="1"
     id="g242"
     transform="translate(-1.7500046,-130.9456)">
    <g
       transform="translate(240.87682,208.12499)"
       id="g241">
      <g
         id="g240">
        <path
           d="m 1.171875,-0.78125 c -0.59375,-0.644531 -0.890625,-1.4375 -0.890625,-2.375 0,-0.9375 0.296875,-1.726562 0.890625,-2.375 0.59375,-0.65625 1.34375,-0.984375 2.25,-0.984375 0.84375,0 1.535156,0.265625 2.078125,0.796875 v -4.890625 H 7.6875 V 0 H 5.515625 V -0.71875 H 5.5 C 4.957031,-0.113281 4.265625,0.1875 3.421875,0.1875 c -0.90625,0 -1.65625,-0.320312 -2.25,-0.96875 z m 1.84375,-3.4375 c -0.28125,0.273438 -0.421875,0.625 -0.421875,1.0625 0,0.4375 0.132812,0.796875 0.40625,1.078125 0.28125,0.273437 0.640625,0.40625 1.078125,0.40625 0.425781,0 0.773437,-0.140625 1.046875,-0.421875 0.28125,-0.28125 0.421875,-0.632812 0.421875,-1.0625 0,-0.4375 -0.140625,-0.789062 -0.421875,-1.0625 C 4.84375,-4.5 4.492188,-4.640625 4.078125,-4.640625 c -0.417969,0 -0.773437,0.140625 -1.0625,0.421875 z m 0,0"
           id="path239" />
      </g>
    </g>
  </g>
  <g
     fill="#000000"
     fill-opacity="1"
     id="g245"
     transform="translate(-1.7500046,-130.9456)">
    <g
       transform="translate(249.29695,208.12499)"
       id="g244">
      <g
         id="g243">
        <path
           d="m 7.140625,-2.859375 h -4.59375 c 0,0.449219 0.144531,0.78125 0.4375,1 0.289063,0.210937 0.601563,0.3125 0.9375,0.3125 0.351563,0 0.628906,-0.046875 0.828125,-0.140625 0.207031,-0.101562 0.445312,-0.289062 0.71875,-0.5625 l 1.578125,0.78125 C 6.378906,-0.363281 5.285156,0.1875 3.765625,0.1875 2.804688,0.1875 1.984375,-0.140625 1.296875,-0.796875 0.617188,-1.453125 0.28125,-2.238281 0.28125,-3.15625 c 0,-0.914062 0.335938,-1.703125 1.015625,-2.359375 0.6875,-0.664063 1.507813,-1 2.46875,-1 1,0 1.8125,0.292969 2.4375,0.875 0.632813,0.585937 0.953125,1.414063 0.953125,2.484375 0,0.148438 -0.00781,0.246094 -0.015625,0.296875 z M 2.609375,-4.0625 h 2.40625 C 4.960938,-4.394531 4.832031,-4.648438 4.625,-4.828125 4.414062,-5.003906 4.148438,-5.09375 3.828125,-5.09375 c -0.367187,0 -0.65625,0.09375 -0.875,0.28125 -0.210937,0.1875 -0.324219,0.4375 -0.34375,0.75 z m 0,0"
           id="path242" />
      </g>
    </g>
  </g>
  <g
     fill="#000000"
     fill-opacity="1"
     id="g251"
     transform="translate(-1.7500046,-130.9456)">
    <g
       transform="translate(260.0964,208.12499)"
       id="g250">
      <g
         id="g249">
        <path
           d="m 4.484375,-10.359375 c 0.550781,0 1.085937,0.08594 1.609375,0.25 0.53125,0.15625 0.925781,0.3125 1.1875,0.46875 l 0.359375,0.25 -0.9375,1.84375 c -0.074219,-0.050781 -0.179687,-0.113281 -0.3125,-0.1875 -0.125,-0.082031 -0.371094,-0.1875 -0.734375,-0.3125 C 5.289062,-8.179688 4.953125,-8.25 4.640625,-8.25 4.253906,-8.25 3.957031,-8.164062 3.75,-8 c -0.210938,0.167969 -0.3125,0.390625 -0.3125,0.671875 0,0.136719 0.046875,0.265625 0.140625,0.390625 0.101563,0.117188 0.273437,0.242188 0.515625,0.375 0.238281,0.136719 0.445312,0.246094 0.625,0.328125 0.1875,0.085937 0.46875,0.203125 0.84375,0.359375 0.65625,0.28125 1.210938,0.667969 1.671875,1.15625 0.46875,0.480469 0.703125,1.023438 0.703125,1.625 C 7.9375,-2.507812 7.832031,-2 7.625,-1.5625 7.414062,-1.125 7.128906,-0.78125 6.765625,-0.53125 6.398438,-0.289062 5.992188,-0.113281 5.546875,0 5.097656,0.125 4.617188,0.1875 4.109375,0.1875 3.660156,0.1875 3.222656,0.140625 2.796875,0.046875 2.367188,-0.046875 2.007812,-0.160156 1.71875,-0.296875 1.4375,-0.429688 1.179688,-0.5625 0.953125,-0.6875 0.722656,-0.820312 0.550781,-0.929688 0.4375,-1.015625 L 0.28125,-1.15625 1.4375,-3.109375 c 0.101562,0.085937 0.238281,0.195313 0.40625,0.328125 0.175781,0.125 0.484375,0.296875 0.921875,0.515625 0.4375,0.210937 0.828125,0.3125 1.171875,0.3125 0.976562,0 1.46875,-0.332031 1.46875,-1 0,-0.144531 -0.039062,-0.273437 -0.109375,-0.390625 -0.074219,-0.125 -0.199219,-0.242188 -0.375,-0.359375 -0.179687,-0.125 -0.335937,-0.21875 -0.46875,-0.28125 C 4.316406,-4.054688 4.09375,-4.164062 3.78125,-4.3125 3.476562,-4.457031 3.253906,-4.566406 3.109375,-4.640625 c -0.617187,-0.300781 -1.09375,-0.675781 -1.4375,-1.125 -0.335937,-0.457031 -0.5,-0.953125 -0.5,-1.484375 0,-0.914062 0.332031,-1.660156 1,-2.234375 0.675781,-0.582031 1.445313,-0.875 2.3125,-0.875 z m 0,0"
           id="path248" />
      </g>
    </g>
  </g>
  <g
     fill="#000000"
     fill-opacity="1"
     id="g254"
     transform="translate(-1.7500046,-130.9456)">
    <g
       transform="translate(268.38092,208.12499)"
       id="g253">
      <g
         id="g252">
        <path
           d="m 1.171875,-0.78125 c -0.59375,-0.644531 -0.890625,-1.4375 -0.890625,-2.375 0,-0.9375 0.296875,-1.726562 0.890625,-2.375 0.59375,-0.65625 1.34375,-0.984375 2.25,-0.984375 0.84375,0 1.535156,0.265625 2.078125,0.796875 V -6.328125 H 7.6875 V 0 H 5.515625 V -0.71875 H 5.5 C 4.957031,-0.113281 4.265625,0.1875 3.421875,0.1875 c -0.90625,0 -1.65625,-0.320312 -2.25,-0.96875 z m 1.84375,-3.4375 c -0.28125,0.273438 -0.421875,0.625 -0.421875,1.0625 0,0.4375 0.132812,0.796875 0.40625,1.078125 0.28125,0.273437 0.640625,0.40625 1.078125,0.40625 0.425781,0 0.773437,-0.140625 1.046875,-0.421875 0.28125,-0.28125 0.421875,-0.632812 0.421875,-1.0625 0,-0.4375 -0.140625,-0.789062 -0.421875,-1.0625 C 4.84375,-4.5 4.492188,-4.640625 4.078125,-4.640625 c -0.417969,0 -0.773437,0.140625 -1.0625,0.421875 z m 0,0"
           id="path251" />
      </g>
    </g>
  </g>
  <g
     fill="#000000"
     fill-opacity="1"
     id="g257"
     transform="translate(-1.7500046,-130.9456)">
    <g
       transform="translate(276.80105,208.12499)"
       id="g256">
      <g
         id="g255">
        <path
           d="m 0.734375,0 v -6.328125 h 2.1875 v 0.671875 h 0.03125 c 0.5625,-0.570312 1.164063,-0.859375 1.8125,-0.859375 0.3125,0 0.617187,0.042969 0.921875,0.125 C 6,-6.304688 6.296875,-6.175781 6.578125,-6 c 0.28125,0.167969 0.507813,0.414062 0.6875,0.734375 0.175781,0.3125 0.265625,0.679687 0.265625,1.09375 V 0 h -2.1875 v -3.578125 c 0,-0.320313 -0.105469,-0.609375 -0.3125,-0.859375 -0.210938,-0.25 -0.480469,-0.375 -0.8125,-0.375 -0.335938,0 -0.636719,0.132812 -0.90625,0.390625 -0.261719,0.25 -0.390625,0.53125 -0.390625,0.84375 V 0 Z m 0,0"
           id="path254" />
      </g>
    </g>
  </g>
  <g
     fill="#000000"
     fill-opacity="1"
     id="g263"
     transform="translate(-1.7500046,-130.9456)">
    <g
       transform="translate(288.31553,208.12499)"
       id="g262">
      <g
         id="g261">
        <path
           d="M 5.171875,-10.171875 V -2.875 c 0,1 -0.277344,1.761719 -0.828125,2.28125 C 3.800781,-0.0703125 3.019531,0.1875 2,0.1875 1.726562,0.1875 1.457031,0.148438 1.1875,0.078125 0.925781,0.015625 0.707031,-0.0625 0.53125,-0.15625 0.351562,-0.25 0.191406,-0.34375 0.046875,-0.4375 c -0.1445312,-0.101562 -0.25,-0.1875 -0.3125,-0.25 L -0.375,-0.78125 0.359375,-2.71875 c 0.476563,0.460938 0.914063,0.6875 1.3125,0.6875 0.351563,0 0.632813,-0.113281 0.84375,-0.34375 0.21875,-0.238281 0.328125,-0.601562 0.328125,-1.09375 v -6.703125 z m 0,0"
           id="path260" />
      </g>
    </g>
  </g>
  <g
     fill="#000000"
     fill-opacity="1"
     id="g266"
     transform="translate(-1.7500046,-130.9456)">
    <g
       transform="translate(294.09743,208.12499)"
       id="g265">
      <g
         id="g264">
        <path
           d="M 2.796875,-6.328125 V -3.3125 c 0,0.625 0.09375,1.070312 0.28125,1.328125 0.1875,0.261719 0.503906,0.390625 0.953125,0.390625 C 4.488281,-1.59375 4.8125,-1.722656 5,-1.984375 5.1875,-2.242188 5.28125,-2.6875 5.28125,-3.3125 v -3.015625 h 2.1875 v 3.546875 c 0,1.054688 -0.277344,1.8125 -0.828125,2.28125 -0.542969,0.4609375 -1.414063,0.6875 -2.609375,0.6875 -1.1875,0 -2.058594,-0.2265625 -2.609375,-0.6875 -0.542969,-0.46875 -0.8125,-1.226562 -0.8125,-2.28125 v -3.546875 z m 0,0"
           id="path263" />
      </g>
    </g>
  </g>
  <g
     fill="#000000"
     fill-opacity="1"
     id="g269"
     transform="translate(-1.7500046,-130.9456)">
    <g
       transform="translate(302.18469,208.12499)"
       id="g268">
      <g
         id="g267">
        <path
           d="m 3.484375,-6.515625 c 0.363281,0 0.722656,0.042969 1.078125,0.125 0.351562,0.085937 0.613281,0.167969 0.78125,0.25 l 0.265625,0.125 -0.71875,1.421875 c -0.492187,-0.257812 -0.960937,-0.390625 -1.40625,-0.390625 -0.242187,0 -0.414063,0.03125 -0.515625,0.09375 -0.105469,0.054687 -0.15625,0.152344 -0.15625,0.296875 0,0.03125 0,0.0625 0,0.09375 0.00781,0.03125 0.023438,0.0625 0.046875,0.09375 0.03125,0.03125 0.054687,0.058594 0.078125,0.078125 0.019531,0.023437 0.054688,0.042969 0.109375,0.0625 0.050781,0.023437 0.085937,0.042969 0.109375,0.0625 0.03125,0.011719 0.078125,0.027344 0.140625,0.046875 0.070313,0.023438 0.125,0.042969 0.15625,0.0625 0.03125,0.011719 0.082031,0.03125 0.15625,0.0625 C 3.691406,-4.007812 3.753906,-4 3.796875,-4 c 0.25,0.074219 0.46875,0.15625 0.65625,0.25 0.195313,0.09375 0.398437,0.21875 0.609375,0.375 0.207031,0.15625 0.367188,0.355469 0.484375,0.59375 0.113281,0.242188 0.171875,0.511719 0.171875,0.8125 0,1.4375 -1,2.15625 -3,2.15625 -0.449219,0 -0.875,-0.070312 -1.28125,-0.203125 C 1.03125,-0.160156 0.738281,-0.300781 0.5625,-0.4375 L 0.28125,-0.671875 1.171875,-2.15625 c 0.0625,0.054688 0.144531,0.121094 0.25,0.203125 0.113281,0.074219 0.304687,0.179687 0.578125,0.3125 0.28125,0.136719 0.523438,0.203125 0.734375,0.203125 0.457031,0 0.6875,-0.148438 0.6875,-0.453125 0,-0.132813 -0.0625,-0.238281 -0.1875,-0.3125 C 3.117188,-2.285156 2.925781,-2.375 2.65625,-2.46875 2.382812,-2.570312 2.171875,-2.664062 2.015625,-2.75 1.617188,-2.957031 1.304688,-3.1875 1.078125,-3.4375 0.847656,-3.695312 0.734375,-4.039062 0.734375,-4.46875 c 0,-0.644531 0.242187,-1.144531 0.734375,-1.5 0.5,-0.363281 1.171875,-0.546875 2.015625,-0.546875 z m 0,0"
           id="path266" />
      </g>
    </g>
  </g>
  <g
     fill="#000000"
     fill-opacity="1"
     id="g272"
     transform="translate(-1.7500046,-130.9456)">
    <g
       transform="translate(308.25014,208.12499)"
       id="g271">
      <g
         id="g270">
        <path
           d="m 1.109375,-6.328125 v -2.34375 h 2.1875 v 2.34375 H 4.625 V -4.65625 H 3.296875 v 2 c 0,0.585938 0.160156,0.875 0.484375,0.875 0.082031,0 0.164062,-0.015625 0.25,-0.046875 0.09375,-0.03125 0.164062,-0.0625 0.21875,-0.09375 L 4.328125,-1.96875 4.875,-0.203125 C 4.40625,0.0546875 3.867188,0.1875 3.265625,0.1875 2.859375,0.1875 2.503906,0.113281 2.203125,-0.03125 1.910156,-0.175781 1.6875,-0.367188 1.53125,-0.609375 1.382812,-0.847656 1.273438,-1.101562 1.203125,-1.375 1.140625,-1.644531 1.109375,-1.929688 1.109375,-2.234375 V -4.65625 h -0.90625 v -1.671875 z m 0,0"
           id="path269" />
      </g>
    </g>
  </g>
  <g
     fill="#000000"
     fill-opacity="1"
     id="g275"
     transform="translate(-1.7500046,-130.9456)">
    <g
       transform="translate(313.11976,208.12499)"
       id="g274">
      <g
         id="g273">
        <path
           d="M 1.328125,-0.75 C 0.628906,-1.375 0.28125,-2.175781 0.28125,-3.15625 c 0,-0.976562 0.363281,-1.78125 1.09375,-2.40625 0.738281,-0.632812 1.644531,-0.953125 2.71875,-0.953125 1.0625,0 1.953125,0.320313 2.671875,0.953125 0.726563,0.636719 1.09375,1.4375 1.09375,2.40625 0,0.96875 -0.355469,1.773438 -1.0625,2.40625 C 6.085938,-0.125 5.1875,0.1875 4.09375,0.1875 2.957031,0.1875 2.035156,-0.125 1.328125,-0.75 Z m 1.6875,-3.46875 c -0.28125,0.273438 -0.421875,0.625 -0.421875,1.0625 0,0.4375 0.132812,0.796875 0.40625,1.078125 0.28125,0.273437 0.640625,0.40625 1.078125,0.40625 0.425781,0 0.773437,-0.140625 1.046875,-0.421875 0.28125,-0.28125 0.421875,-0.632812 0.421875,-1.0625 0,-0.4375 -0.140625,-0.789062 -0.421875,-1.0625 C 4.84375,-4.5 4.492188,-4.640625 4.078125,-4.640625 c -0.417969,0 -0.773437,0.140625 -1.0625,0.421875 z m 0,0"
           id="path272" />
      </g>
    </g>
  </g>
  <g
     fill="#000000"
     fill-opacity="1"
     id="g281"
     transform="translate(-1.7500046,-130.9456)">
    <g
       transform="translate(324.63425,208.12499)"
       id="g280">
      <g
         id="g279">
        <path
           d="m 3.0625,-10.171875 v 8.140625 h 3.5 V 0 H 0.734375 v -10.171875 z m 0,0"
           id="path278" />
      </g>
    </g>
  </g>
  <g
     fill="#000000"
     fill-opacity="1"
     id="g284"
     transform="translate(-1.7500046,-130.9456)">
    <g
       transform="translate(331.59965,208.12499)"
       id="g283">
      <g
         id="g282">
        <path
           d="m 1.109375,-6.328125 v -2.34375 h 2.1875 v 2.34375 H 4.625 V -4.65625 H 3.296875 v 2 c 0,0.585938 0.160156,0.875 0.484375,0.875 0.082031,0 0.164062,-0.015625 0.25,-0.046875 0.09375,-0.03125 0.164062,-0.0625 0.21875,-0.09375 L 4.328125,-1.96875 4.875,-0.203125 C 4.40625,0.0546875 3.867188,0.1875 3.265625,0.1875 2.859375,0.1875 2.503906,0.113281 2.203125,-0.03125 1.910156,-0.175781 1.6875,-0.367188 1.53125,-0.609375 1.382812,-0.847656 1.273438,-1.101562 1.203125,-1.375 1.140625,-1.644531 1.109375,-1.929688 1.109375,-2.234375 V -4.65625 h -0.90625 v -1.671875 z m 0,0"
           id="path281" />
      </g>
    </g>
  </g>
  <g
     fill="#000000"
     fill-opacity="1"
     id="g287"
     transform="translate(-1.7500046,-130.9456)">
    <g
       transform="translate(336.46927,208.12499)"
       id="g286">
      <g
         id="g285">
        <path
           d="m 1.171875,-0.78125 c -0.59375,-0.644531 -0.890625,-1.4375 -0.890625,-2.375 0,-0.9375 0.296875,-1.726562 0.890625,-2.375 0.59375,-0.65625 1.34375,-0.984375 2.25,-0.984375 0.84375,0 1.535156,0.265625 2.078125,0.796875 v -4.890625 H 7.6875 V 0 H 5.515625 V -0.71875 H 5.5 C 4.957031,-0.113281 4.265625,0.1875 3.421875,0.1875 c -0.90625,0 -1.65625,-0.320312 -2.25,-0.96875 z m 1.84375,-3.4375 c -0.28125,0.273438 -0.421875,0.625 -0.421875,1.0625 0,0.4375 0.132812,0.796875 0.40625,1.078125 0.28125,0.273437 0.640625,0.40625 1.078125,0.40625 0.425781,0 0.773437,-0.140625 1.046875,-0.421875 0.28125,-0.28125 0.421875,-0.632812 0.421875,-1.0625 0,-0.4375 -0.140625,-0.789062 -0.421875,-1.0625 C 4.84375,-4.5 4.492188,-4.640625 4.078125,-4.640625 c -0.417969,0 -0.773437,0.140625 -1.0625,0.421875 z m 0,0"
           id="path284" />
      </g>
    </g>
  </g>
  <g
     fill="#000000"
     fill-opacity="1"
     id="g290"
     transform="translate(-1.7500046,-130.9456)">
    <g
       transform="translate(344.88939,208.12499)"
       id="g289">
      <g
         id="g288">
        <path
           d="m 1.171875,-0.78125 c -0.59375,-0.644531 -0.890625,-1.4375 -0.890625,-2.375 0,-0.9375 0.296875,-1.726562 0.890625,-2.375 0.59375,-0.65625 1.34375,-0.984375 2.25,-0.984375 0.84375,0 1.535156,0.265625 2.078125,0.796875 V -6.328125 H 7.6875 V 0 H 5.515625 V -0.71875 H 5.5 C 4.957031,-0.113281 4.265625,0.1875 3.421875,0.1875 c -0.90625,0 -1.65625,-0.320312 -2.25,-0.96875 z m 1.84375,-3.4375 c -0.28125,0.273438 -0.421875,0.625 -0.421875,1.0625 0,0.4375 0.132812,0.796875 0.40625,1.078125 0.28125,0.273437 0.640625,0.40625 1.078125,0.40625 0.425781,0 0.773437,-0.140625 1.046875,-0.421875 0.28125,-0.28125 0.421875,-0.632812 0.421875,-1.0625 0,-0.4375 -0.140625,-0.789062 -0.421875,-1.0625 C 4.84375,-4.5 4.492188,-4.640625 4.078125,-4.640625 c -0.417969,0 -0.773437,0.140625 -1.0625,0.421875 z m 0,0"
           id="path287" />
      </g>
    </g>
  </g>
  <g
     fill="#000000"
     fill-opacity="1"
     id="g293"
     transform="translate(-1.7500046,-130.9456)">
    <g
       transform="translate(353.30952,208.12499)"
       id="g292">
      <g
         id="g291">
        <path
           d="m 2.140625,-2.640625 c 0.394531,0 0.726563,0.140625 1,0.421875 0.28125,0.273438 0.421875,0.605469 0.421875,1 0,0.386719 -0.140625,0.71875 -0.421875,1 -0.273437,0.2695312 -0.605469,0.40625 -1,0.40625 -0.386719,0 -0.71875,-0.1367188 -1,-0.40625 -0.273437,-0.28125 -0.40625,-0.613281 -0.40625,-1 0,-0.394531 0.132813,-0.726562 0.40625,-1 0.28125,-0.28125 0.613281,-0.421875 1,-0.421875 z m 0,0"
           id="path290" />
      </g>
    </g>
  </g>
  <g
     clip-path="url(#14e2e18106)"
     id="g297"
     transform="translate(-1.7500046,-130.9456)">
    <g
       clip-path="url(#f869b3acc1)"
       id="g296">
      <g
         clip-path="url(#3fb0f7688f)"
         id="g295">
        <g
           clip-path="url(#a6349f0271)"
           id="g294">
          <path
             fill="#000000"
             d="m 26.78125,181.30078 c 0.691406,0.27344 1.390625,0.51172 2.101562,0.71484 0.710938,0.20313 1.433594,0.3711 2.160157,0.50391 0.730469,0.13281 1.460937,0.22656 2.199219,0.28906 0.738281,0.0586 1.476562,0.0859 2.21875,0.0742 0.738281,-0.0117 1.476562,-0.0586 2.214843,-0.14453 0.734375,-0.082 1.464844,-0.20312 2.1875,-0.35937 0.722657,-0.15625 1.4375,-0.34375 2.144531,-0.57032 0.703126,-0.22656 1.398438,-0.48437 2.078126,-0.77734 0.679687,-0.29297 1.34375,-0.62109 1.992187,-0.98047 0.644531,-0.35547 1.273437,-0.74609 1.882813,-1.16406 0.613281,-0.42188 1.199218,-0.8711 1.765624,-1.34766 0.566407,-0.47656 1.105469,-0.98047 1.621094,-1.51172 0.519532,-0.53125 1.007813,-1.08593 1.46875,-1.66406 0.460938,-0.57812 0.894532,-1.17969 1.296875,-1.80078 0.40625,-0.62109 0.777344,-1.25781 1.117188,-1.91406 0.339843,-0.66016 0.648437,-1.33203 0.925781,-2.01953 l 9.800781,3.92187 c -0.402343,1.00781 -0.855469,1.99219 -1.351562,2.95703 -0.5,0.96485 -1.046875,1.90235 -1.636719,2.8125 -0.589844,0.91406 -1.226562,1.79297 -1.902344,2.64063 -0.679687,0.84765 -1.394531,1.66406 -2.152344,2.4414 -0.757812,0.77735 -1.550781,1.51563 -2.382812,2.21875 -0.828125,0.69922 -1.691406,1.35938 -2.585938,1.97266 -0.894531,0.61719 -1.816406,1.1875 -2.765624,1.71484 -0.949219,0.52344 -1.921876,1.00391 -2.921876,1.4336 -0.996093,0.42968 -2.011718,0.80859 -3.046874,1.14062 -1.035157,0.33203 -2.082032,0.60938 -3.144532,0.83594 -1.0625,0.23047 -2.132812,0.40625 -3.210937,0.52734 -1.078125,0.125 -2.160157,0.19141 -3.246094,0.21094 -1.085937,0.0156 -2.167969,-0.0195 -3.253906,-0.10937 -1.082031,-0.0898 -2.15625,-0.23047 -3.222657,-0.42579 -1.070312,-0.19531 -2.125,-0.4414 -3.171874,-0.74218 -1.042969,-0.29688 -2.070313,-0.64453 -3.078126,-1.04297 z m 0,0"
             fill-opacity="1"
             fill-rule="nonzero"
             id="path293" />
        </g>
      </g>
    </g>
  </g>
  <g
     fill="#000000"
     fill-opacity="1"
     id="g300"
     transform="translate(-1.7500046,-130.9456)">
    <g
       transform="translate(4.5e-6,194.63309)"
       id="g299">
      <g
         id="g298">
        <path
           d="m 37.828125,-12.890625 c 2.175781,0 4.285156,-0.328125 6.328125,-0.984375 2.050781,-0.65625 3.554688,-1.285156 4.515625,-1.890625 l 1.4375,-0.984375 6.0625,12.125 c -0.199219,0.15625 -0.476563,0.359375 -0.828125,0.609375 -0.355469,0.25 -1.179688,0.71875 -2.46875,1.40625 -1.28125,0.679687 -2.65625,1.273437 -4.125,1.78125 -1.46875,0.5 -3.390625,0.953125 -5.765625,1.359375 -2.375,0.40625 -4.828125,0.609375 -7.359375,0.609375 -5.8125,0 -11.324219,-1.425781 -16.53125,-4.28125 C 13.894531,-5.992188 9.703125,-9.921875 6.515625,-14.921875 3.335938,-19.929688 1.75,-25.34375 1.75,-31.15625 c 0,-4.394531 0.929688,-8.613281 2.796875,-12.65625 1.875,-4.050781 4.363281,-7.515625 7.46875,-10.390625 3.101563,-2.882813 6.726563,-5.1875 10.875,-6.90625 4.144531,-1.71875 8.390625,-2.578125 12.734375,-2.578125 4.050781,0 7.78125,0.484375 11.1875,1.453125 3.414062,0.960937 5.828125,1.917969 7.234375,2.875 l 2.125,1.4375 -6.0625,12.125 c -0.355469,-0.300781 -0.886719,-0.664063 -1.59375,-1.09375 -0.710937,-0.425781 -2.125,-0.992187 -4.25,-1.703125 -2.117187,-0.707031 -4.261719,-1.0625 -6.4375,-1.0625 -3.4375,0 -6.523437,0.558594 -9.25,1.671875 -2.730469,1.105469 -4.890625,2.570313 -6.484375,4.390625 -1.585938,1.824219 -2.796875,3.78125 -3.640625,5.875 -0.835937,2.09375 -1.25,4.230469 -1.25,6.40625 0,4.75 1.78125,9.011719 5.34375,12.78125 3.570313,3.761719 8.664063,5.640625 15.28125,5.640625 z m 0,0"
           id="path297" />
      </g>
    </g>
  </g>
  <g
     fill="#000000"
     fill-opacity="1"
     id="g303"
     transform="translate(-1.7500046,-130.9456)">
    <g
       transform="translate(47.737059,219.95096)"
       id="g302">
      <g
         id="g301">
        <path
           d="m 27.59375,-63.671875 c 3.382812,0 6.691406,0.496094 9.921875,1.484375 3.238281,0.980469 5.640625,1.953125 7.203125,2.921875 L 47,-57.75 41.234375,-46.390625 c -0.460937,-0.300781 -1.09375,-0.691406 -1.90625,-1.171875 -0.804687,-0.476562 -2.320313,-1.117188 -4.546875,-1.921875 -2.21875,-0.8125 -4.289062,-1.21875 -6.203125,-1.21875 -2.375,0 -4.210937,0.507813 -5.5,1.515625 -1.292969,1.011719 -1.9375,2.375 -1.9375,4.09375 0,0.855469 0.300781,1.652344 0.90625,2.390625 0.613281,0.730469 1.648437,1.511719 3.109375,2.34375 1.46875,0.835937 2.757812,1.507813 3.875,2.015625 1.113281,0.5 2.832031,1.257812 5.15625,2.265625 4.039062,1.71875 7.488281,4.058594 10.34375,7.015625 2.851562,2.949219 4.28125,6.292969 4.28125,10.03125 0,3.59375 -0.648438,6.730469 -1.9375,9.40625 -1.28125,2.679688 -3.046875,4.777344 -5.296875,6.296875 -2.25,1.511719 -4.742187,2.632813 -7.46875,3.359375 -2.730469,0.738281 -5.6875,1.109375 -8.875,1.109375 -2.730469,0 -5.40625,-0.28125 -8.03125,-0.84375 -2.625,-0.550781 -4.824219,-1.242187 -6.59375,-2.078125 -1.773437,-0.832031 -3.367187,-1.648438 -4.78125,-2.453125 -1.40625,-0.8125 -2.4375,-1.5 -3.09375,-2.0625 L 1.75,-7.125 8.875,-19.09375 c 0.601562,0.5 1.4375,1.140625 2.5,1.921875 1.0625,0.78125 2.941406,1.835937 5.640625,3.15625 2.707031,1.3125 5.09375,1.96875 7.15625,1.96875 6.019531,0 9.03125,-2.046875 9.03125,-6.140625 0,-0.863281 -0.21875,-1.660156 -0.65625,-2.390625 -0.429687,-0.726563 -1.183594,-1.457031 -2.265625,-2.1875 -1.085938,-0.738281 -2.042969,-1.320313 -2.875,-1.75 -0.835938,-0.4375 -2.199219,-1.09375 -4.09375,-1.96875 -1.898438,-0.882813 -3.304688,-1.554687 -4.21875,-2.015625 -3.78125,-1.863281 -6.710938,-4.195312 -8.78125,-7 -2.074219,-2.8125 -3.109375,-5.832031 -3.109375,-9.0625 0,-5.613281 2.066406,-10.203125 6.203125,-13.765625 4.144531,-3.5625 8.875,-5.34375 14.1875,-5.34375 z m 0,0"
           id="path300" />
      </g>
    </g>
  </g>
  <g
     fill="#000000"
     fill-opacity="1"
     id="g306"
     transform="translate(-1.7500046,-130.9456)">
    <g
       transform="translate(94.503154,219.95096)"
       id="g305">
      <g
         id="g304">
        <path
           d="m 4.546875,-62.53125 h 22.8125 c 6.363281,0 11.515625,1.648438 15.453125,4.9375 3.945312,3.28125 5.921875,8.058594 5.921875,14.328125 0,6.261719 -1.996094,11.171875 -5.984375,14.734375 -3.992188,3.5625 -9.121094,5.34375 -15.390625,5.34375 h -8.5625 V 0 h -14.25 z m 14.25,27.96875 H 22.8125 c 3.1875,0 5.800781,-0.640625 7.84375,-1.921875 2.050781,-1.289063 3.078125,-3.40625 3.078125,-6.34375 0,-2.976563 -1.027344,-5.109375 -3.078125,-6.390625 -2.042969,-1.289062 -4.65625,-1.9375 -7.84375,-1.9375 h -4.015625 z m 0,0"
           id="path303" />
      </g>
    </g>
  </g>
  <g
     clip-path="url(#0cbb63048c)"
     id="g310"
     transform="translate(-1.7500046,-130.9456)">
    <g
       clip-path="url(#443955cc31)"
       id="g309">
      <g
         clip-path="url(#82e34e778d)"
         id="g308">
        <g
           clip-path="url(#8ac7d8e05e)"
           id="g307">
          <path
             fill="#000000"
             d="m 27.234375,183.31641 c 0.652344,0.34375 1.320313,0.65625 2.007813,0.9375 0.683593,0.28125 1.382812,0.52734 2.089843,0.74218 0.710938,0.21094 1.429688,0.38672 2.15625,0.53125 0.726563,0.14063 1.457031,0.2461 2.195313,0.31641 0.734375,0.0703 1.472656,0.10547 2.214844,0.10547 0.742187,-0.004 1.480468,-0.043 2.214843,-0.11719 0.738281,-0.0742 1.46875,-0.18359 2.195313,-0.32812 0.726562,-0.14844 1.441406,-0.32813 2.148437,-0.54297 0.710938,-0.21875 1.40625,-0.46875 2.089844,-0.75 0.683594,-0.28516 1.351563,-0.60157 2.003906,-0.95313 0.652344,-0.35156 1.285157,-0.73047 1.902344,-1.14453 0.613281,-0.41016 1.207031,-0.85156 1.78125,-1.32031 0.570313,-0.47266 1.117187,-0.96875 1.640625,-1.49219 0.523438,-0.52344 1.019531,-1.07031 1.488281,-1.64453 0.472657,-0.57031 0.910157,-1.16406 1.324219,-1.78125 0.410156,-0.61719 0.789062,-1.25 1.140625,-1.90234 l 9.308594,4.98046 c -0.511719,0.96094 -1.070313,1.89063 -1.671875,2.79297 -0.605469,0.90235 -1.25,1.77344 -1.9375,2.61328 -0.691406,0.83985 -1.417969,1.64454 -2.183594,2.41407 -0.769531,0.76562 -1.570312,1.49609 -2.410156,2.1875 -0.839844,0.6875 -1.710938,1.33593 -2.613282,1.9414 -0.902343,0.60157 -1.832031,1.16016 -2.789062,1.67578 -0.957031,0.51172 -1.933594,0.97657 -2.9375,1.39454 -1.003906,0.41796 -2.023438,0.78515 -3.0625,1.10156 -1.039062,0.3164 -2.089844,0.58203 -3.15625,0.79687 -1.0625,0.21485 -2.136719,0.375 -3.214844,0.48438 -1.082031,0.10937 -2.164062,0.16406 -3.25,0.16797 -1.085937,0 -2.171875,-0.0469 -3.25,-0.15235 -1.082031,-0.10156 -2.15625,-0.25781 -3.222656,-0.46875 -1.0625,-0.20703 -2.117188,-0.46875 -3.15625,-0.78125 -1.042969,-0.3125 -2.0625,-0.67187 -3.066406,-1.08593 -1.007813,-0.41016 -1.988282,-0.8711 -2.949219,-1.37891 z m 0,0"
             fill-opacity="1"
             fill-rule="nonzero"
             id="path306" />
        </g>
      </g>
    </g>
  </g>
</svg>
