<?xml version="1.0" standalone="no"?>
<!DOCTYPE svg PUBLIC "-//W3C//DTD SVG 20010904//EN"
 "http://www.w3.org/TR/2001/REC-SVG-20010904/DTD/svg10.dtd">
<svg version="1.0" xmlns="http://www.w3.org/2000/svg"
 width="512.000000pt" height="512.000000pt" viewBox="0 0 512.000000 512.000000"
 preserveAspectRatio="xMidYMid meet">

<g transform="translate(0.000000,512.000000) scale(0.100000,-0.100000)"
fill="#000000" stroke="none">
<path d="M2505 4935 c-24 -23 -25 -28 -25 -175 0 -147 1 -152 25 -175 15 -16
36 -25 55 -25 19 0 40 9 55 25 24 23 25 28 25 175 0 147 -1 152 -25 175 -15
16 -36 25 -55 25 -19 0 -40 -9 -55 -25z"/>
<path d="M2375 4384 c-307 -47 -571 -187 -791 -416 -184 -193 -303 -422 -361
-698 -24 -117 -24 -389 0 -514 57 -284 183 -522 381 -722 56 -55 128 -120 161
-144 68 -49 91 -72 110 -116 8 -17 32 -137 54 -267 22 -130 47 -249 55 -265 8
-16 33 -45 55 -65 l41 -37 0 -305 0 -306 25 -24 c13 -14 35 -25 49 -25 23 0
26 -8 57 -137 24 -97 41 -145 56 -161 22 -22 25 -22 293 -22 268 0 271 0 293
23 15 15 32 63 56 159 31 130 34 138 57 138 14 0 36 11 49 25 l25 24 0 306 0
305 41 37 c22 20 47 49 55 65 8 16 33 135 55 265 22 130 46 251 53 268 15 36
41 61 147 145 257 201 430 482 501 813 31 146 31 418 0 564 -108 499 -450 888
-912 1038 -192 62 -409 79 -605 49z m350 -154 c542 -77 955 -507 1026 -1067
54 -433 -141 -889 -490 -1143 -81 -59 -131 -114 -161 -176 -16 -35 -100 -464
-100 -513 0 -6 -9 -20 -20 -31 -19 -19 -33 -20 -420 -20 -387 0 -401 1 -420
20 -11 11 -20 25 -20 31 0 48 -84 478 -100 512 -30 63 -73 110 -159 177 -213
161 -353 356 -436 603 -123 366 -64 773 157 1094 110 160 318 335 490 412 208
93 447 130 653 101z m155 -3190 l0 -80 -215 0 c-216 0 -216 0 -240 -25 -33
-32 -33 -78 0 -110 24 -25 24 -25 240 -25 l215 0 0 -80 0 -80 -320 0 -320 0 0
240 0 240 320 0 320 0 0 -80z m-122 -640 l-20 -80 -178 0 -178 0 -20 80 -20
80 218 0 218 0 -20 -80z"/>
<path d="M2667 3898 c-14 -13 -223 -258 -466 -546 -478 -567 -470 -554 -416
-607 l24 -25 256 0 255 0 0 -335 0 -336 25 -24 c31 -32 76 -33 108 -2 14 12
223 257 466 545 478 567 470 554 416 607 l-24 25 -256 0 -255 0 0 335 0 336
-25 24 c-31 32 -76 33 -108 3z m-4 -835 c15 -16 44 -19 229 -23 l211 -5 -311
-368 -312 -368 0 264 c0 246 -1 266 -19 288 -19 24 -23 24 -232 29 l-212 5
309 365 309 365 5 -267 c4 -239 7 -269 23 -285z"/>
<path d="M993 4158 c-27 -13 -47 -60 -40 -91 4 -12 53 -68 110 -125 88 -86
109 -102 136 -102 43 0 81 38 81 82 0 27 -15 47 -108 140 -112 112 -128 121
-179 96z"/>
<path d="M3948 4062 c-93 -93 -108 -113 -108 -140 0 -44 38 -82 81 -82 27 0
48 16 135 101 56 56 105 113 109 127 13 52 -30 102 -87 102 -15 0 -60 -38
-130 -108z"/>
<path d="M745 2615 c-16 -15 -25 -36 -25 -55 0 -19 9 -40 25 -55 23 -24 28
-25 175 -25 147 0 152 1 175 25 16 15 25 36 25 55 0 19 -9 40 -25 55 -23 24
-28 25 -175 25 -147 0 -152 -1 -175 -25z"/>
<path d="M4025 2615 c-16 -15 -25 -36 -25 -55 0 -19 9 -40 25 -55 23 -24 28
-25 175 -25 147 0 152 1 175 25 16 15 25 36 25 55 0 19 -9 40 -25 55 -23 24
-28 25 -175 25 -147 0 -152 -1 -175 -25z"/>
<path d="M1468 1582 c-93 -93 -108 -113 -108 -140 0 -44 38 -82 82 -82 27 0
47 15 140 108 93 93 108 113 108 140 0 44 -38 82 -82 82 -27 0 -47 -15 -140
-108z"/>
<path d="M3455 1665 c-16 -16 -25 -35 -25 -57 0 -27 15 -47 108 -140 93 -93
113 -108 140 -108 44 0 82 38 82 82 0 27 -15 47 -108 140 -93 93 -113 108
-140 108 -22 0 -41 -9 -57 -25z"/>
</g>
</svg>
