<svg version="1.0" xmlns="http://www.w3.org/2000/svg"
 width="512.000000pt" height="512.000000pt" viewBox="0 0 512.000000 512.000000"
 preserveAspectRatio="xMidYMid meet">

<g transform="translate(0.000000,512.000000) scale(0.100000,-0.100000)"
fill="#000000" stroke="none">
<path d="M2154 5086 c-66 -16 -127 -48 -185 -96 l-47 -39 -403 -3 c-392 -3
-405 -4 -444 -25 -214 -115 -216 -406 -4 -512 l62 -31 404 0 403 0 43 -32 c23
-18 66 -44 95 -57 l53 -25 -3 -90 -3 -91 -198 -5 -199 -5 -24 -28 c-32 -37
-39 -71 -25 -118 8 -27 23 -46 44 -59 30 -19 53 -20 440 -20 l407 0 0 -70 0
-69 -485 -3 -485 -3 -32 -33 -33 -32 -3 -125 -4 -125 -303 0 -303 0 -12 35
c-16 50 -53 75 -109 75 -53 0 -84 -18 -106 -60 -22 -43 -22 -1267 0 -1310 22
-42 53 -60 105 -60 85 0 120 50 120 170 l0 70 351 0 352 0 72 -69 c282 -267
700 -299 1024 -78 25 17 74 58 108 90 62 59 63 60 108 54 104 -15 231 -112
275 -209 l19 -43 -34 -18 c-73 -37 -86 -136 -25 -190 l30 -27 220 0 220 0
-104 -130 c-264 -332 -422 -596 -477 -795 -18 -66 -21 -97 -16 -175 10 -184
77 -330 212 -465 139 -139 300 -205 503 -205 127 0 208 18 317 70 147 71 260
186 331 335 50 105 68 185 68 300 0 87 -4 112 -33 195 -73 212 -222 445 -540
840 l-24 30 181 0 c179 0 181 0 211 26 67 56 52 165 -26 195 -17 6 -23 19 -28
66 -41 353 -176 650 -403 885 -198 204 -454 340 -716 379 -127 19 -113 3 -118
136 -3 92 -7 124 -21 145 -23 33 -74 58 -121 58 l-36 0 0 150 0 150 -29 32
-29 33 -189 5 -188 5 -3 92 -3 91 58 27 c32 14 75 39 95 55 l37 30 404 0 404
0 62 31 c144 72 198 237 126 385 -28 57 -64 92 -129 127 -40 21 -51 22 -445
25 l-403 3 -47 39 c-58 48 -130 85 -199 99 -65 14 -102 13 -168 -3z m176 -251
c54 -28 100 -103 100 -165 0 -64 -45 -136 -105 -167 -38 -20 -122 -20 -160 0
-66 34 -105 96 -105 165 1 76 64 164 128 178 15 3 32 7 37 9 16 5 78 -7 105
-20z m-503 -175 l1 -49 -321 -3 c-177 -2 -330 1 -339 5 -27 12 -34 54 -13 77
17 19 33 20 344 20 l326 0 2 -50z m1511 38 c20 -20 14 -65 -10 -82 -19 -14
-69 -16 -340 -16 l-318 0 0 55 0 55 328 0 c242 0 331 -3 340 -12z m-588 -1334
c0 -175 21 -196 212 -214 257 -23 476 -121 657 -294 205 -196 324 -443 366
-758 l6 -48 -259 0 -260 0 -12 47 c-20 83 -87 198 -154 265 -114 114 -244 173
-407 185 -110 7 -136 -2 -189 -73 -76 -101 -184 -170 -318 -205 -134 -34 -262
-19 -393 46 -56 28 -95 59 -160 125 -48 48 -96 93 -107 99 -14 7 -148 11 -416
11 l-396 0 0 305 0 305 380 0 c265 0 387 3 404 12 49 22 60 53 64 181 l4 117
489 0 489 0 0 -106z m1139 -1949 c199 -263 315 -470 342 -608 21 -115 -31
-264 -131 -371 -133 -142 -330 -190 -507 -125 -239 89 -375 342 -302 562 50
150 238 448 422 670 l40 49 19 -24 c10 -12 63 -81 117 -153z"/>
<path d="M3554 713 c-35 -7 -75 -57 -81 -100 -8 -61 16 -96 89 -132 126 -62
245 -63 374 -2 74 34 99 67 99 129 0 37 -5 48 -32 73 -41 36 -78 46 -117 29
-90 -36 -113 -42 -158 -36 -26 3 -57 11 -70 19 -27 17 -74 26 -104 20z"/>
</g>
</svg>
