<?xml version="1.0" standalone="no"?>
<!DOCTYPE svg PUBLIC "-//W3C//DTD SVG 20010904//EN"
 "http://www.w3.org/TR/2001/REC-SVG-20010904/DTD/svg10.dtd">
<svg version="1.0" xmlns="http://www.w3.org/2000/svg"
 width="512.000000pt" height="512.000000pt" viewBox="0 0 512.000000 512.000000"
 preserveAspectRatio="xMidYMid meet">

<g transform="translate(0.000000,512.000000) scale(0.100000,-0.100000)"
fill="#696969" stroke="none">
<path d="M2492 5090 c-58 -36 -62 -58 -62 -362 0 -240 2 -277 18 -307 24 -49
62 -74 112 -74 50 0 88 25 112 74 16 30 18 67 18 307 0 304 -4 326 -62 362
-18 11 -49 20 -68 20 -19 0 -50 -9 -68 -20z"/>
<path d="M1089 5025 c-52 -28 -76 -92 -56 -147 6 -19 72 -138 145 -264 143
-247 160 -267 233 -267 68 0 121 52 123 122 0 32 -23 79 -138 280 -76 133
-152 253 -168 266 -34 29 -96 33 -139 10z"/>
<path d="M3892 5015 c-16 -13 -92 -133 -168 -266 -115 -201 -138 -248 -138
-280 2 -70 55 -122 123 -122 73 0 90 20 233 267 145 250 161 285 151 325 -22
92 -132 134 -201 76z"/>
<path d="M70 4072 c-65 -34 -87 -124 -47 -185 8 -12 125 -86 261 -164 214
-125 252 -143 290 -143 99 0 158 109 104 190 -34 50 -500 320 -553 320 -11 0
-36 -8 -55 -18z"/>
<path d="M4898 4051 c-40 -21 -154 -86 -253 -143 -190 -110 -225 -141 -225
-202 0 -38 30 -89 65 -112 52 -34 102 -17 315 106 279 162 291 169 306 207 19
44 18 72 -4 112 -20 37 -72 71 -109 71 -12 0 -55 -17 -95 -39z"/>
<path d="M1682 3810 c-178 -47 -335 -174 -410 -331 -22 -46 -45 -106 -51 -134
-19 -86 -430 -2319 -427 -2322 1 -2 797 -2 1768 -1 l1765 3 -222 1100 c-122
605 -229 1138 -238 1185 -44 229 -197 403 -434 493 -58 22 -61 22 -868 24
-772 2 -813 1 -883 -17z m809 -505 c61 -32 84 -105 54 -169 -31 -64 -55 -70
-302 -76 -292 -7 -275 8 -308 -265 -19 -161 -34 -201 -88 -228 -46 -24 -94
-17 -136 19 -49 41 -51 70 -26 272 26 205 45 260 115 336 99 108 160 125 443
125 178 1 223 -2 248 -14z"/>
<path d="M547 749 c-97 -23 -199 -106 -251 -204 l-31 -60 -3 -208 -3 -208 34
-34 35 -35 2232 0 2232 0 35 35 34 34 -3 203 c-3 199 -4 204 -32 265 -35 76
-113 153 -193 191 l-58 27 -1995 2 c-1143 0 -2011 -3 -2033 -8z"/>
</g>
</svg>
